<svg width="173" height="274" viewBox="0 0 173 274" fill="none" xmlns="http://www.w3.org/2000/svg">
<path fill-rule="evenodd" clip-rule="evenodd" d="M167.116 269.313C171.199 269.116 169.557 261.971 169.264 259.347C166.031 249.764 166.791 239.308 165.52 229.263C164.727 219.886 163.71 210.538 162.854 201.168C161.172 182.148 149.099 143.427 135.321 137.2C133.586 129.582 126.417 122.47 117.348 122.47C111.162 115.145 103.716 109.99 94.166 111.031C90.2195 111.21 86.3923 115.398 82.6108 116.206C80.4935 116.498 61.7033 115.747 57.9393 117.983C55.3175 119.33 52.9507 121.818 53.7216 124.987C54.9516 128.825 51.1291 124.672 43.1552 128.769C26.8954 138.538 36.6116 151.607 37.0422 152.012C26.8954 166.135 18.0267 177.593 13.9232 194.855C11.2638 207.671 11.5631 220.902 9.33489 233.784C8.54813 238.25 7.34116 242.564 6.0351 246.902C4.61961 252.578 3.93133 266.727 3.15112 266.853C1.72993 267.206 3.9725 270.126 5.47841 270.128C47.23 277.056 89.6394 270.415 131.615 269.33C143.445 268.918 155.287 268.824 167.116 269.313Z" fill="white"/>
<path fill-rule="evenodd" clip-rule="evenodd" d="M103.835 153.259C103.855 153.067 104.112 153.068 104.132 153.259L104.427 156.105C104.786 159.582 105.131 163.052 105.381 166.545C105.693 170.901 105.902 175.255 106.003 179.621C106.353 194.825 106.423 210.037 106.453 225.244C108.508 225.102 110.564 224.965 112.622 224.832C114.017 224.742 115.413 224.655 116.809 224.57L120.368 224.354L121.833 224.264C122.824 224.203 123.949 223.954 124.641 224.831C124.918 225.182 125.057 225.639 124.799 226.056C124.203 227.018 123.287 226.984 122.252 227.026C121.275 227.065 120.298 227.104 119.321 227.142C117.228 227.223 115.135 227.3 113.041 227.359C110.843 227.42 108.646 227.47 106.45 227.508C106.427 233.928 106.162 240.34 105.875 246.753L105.745 249.639C105.393 257.443 105.016 265.254 104.479 273.048C104.435 273.686 103.532 273.685 103.488 273.048C102.884 264.271 102.485 255.475 102.089 246.686C101.803 240.314 101.636 233.94 101.556 227.565C101.266 227.566 100.975 227.571 100.685 227.572C92.44 227.607 84.197 227.643 75.9519 227.566C75.9656 227.582 75.9791 227.599 75.9882 227.62C76.5848 229.029 76.6417 230.827 76.6271 232.34C76.6104 234.074 76.3769 235.787 75.9776 237.474C74.5471 243.516 70.8571 248.928 66.6545 253.402L66.5173 253.547C65.526 254.595 64.3888 255.648 63.7801 256.983C63.1584 258.345 62.9426 259.939 62.6358 261.404L62.6 261.572L61.4004 267.115C61.0193 268.876 60.9111 271.443 59.518 272.713C58.2183 273.899 56.4964 273.28 55.8848 271.754C55.4071 270.563 55.8829 269.255 56.1658 268.064L58.3822 258.744C58.7464 257.224 59.1444 255.694 59.9304 254.329C60.7355 252.93 61.9159 251.916 63.1203 250.879C65.4009 248.915 67.4946 246.666 69.2652 244.231C71.0352 241.797 72.5479 239.114 73.6087 236.293C74.1398 234.881 74.575 233.414 74.8752 231.935C75.1607 230.531 75.1581 229.077 75.4634 227.689C75.4843 227.593 75.5652 227.527 75.658 227.498C75.636 227.436 75.6696 227.352 75.7562 227.347L82.4994 226.913C88.4934 226.527 94.4872 226.13 100.476 225.677L101.534 225.6C101.452 217.094 101.522 208.587 101.675 200.078C101.816 192.275 101.819 184.47 102.051 176.668C102.166 172.796 102.415 168.933 102.692 165.069C102.975 161.117 103.428 157.199 103.835 153.259ZM40.5199 198.501C40.4481 198.068 40.993 197.8 41.2442 198.196C44.1155 202.724 45.4999 207.641 46.0835 212.94C46.599 217.616 46.4471 222.359 46.1904 227.048C45.9166 232.048 45.5971 237.048 45.2741 242.045L44.7778 249.71L43.5324 268.923C43.4433 270.298 43.1314 271.547 41.9485 272.186C41.7987 272.311 41.6426 272.424 41.4607 272.521C40.8216 272.863 39.974 272.69 39.6045 272.034L39.7527 272.131C39.8817 272.213 39.7368 272.099 39.3178 271.791L38.9623 271.331C38.7039 270.943 38.5389 270.561 38.4725 270.099C38.3694 269.381 38.503 268.594 38.5499 267.873L39.3662 255.274C40.0011 245.48 40.7424 235.688 41.3012 225.888C41.5615 221.321 41.7438 216.749 41.6204 212.174C41.4975 207.624 41.2657 202.997 40.5199 198.501ZM65.3595 114.161L65.5188 114.134C71.222 113.186 77.4235 113.364 82.6357 116.114C82.6788 116.137 82.6592 116.208 82.6108 116.206L80.9331 116.139C75.6221 115.931 70.3275 115.808 65.1054 117.056L64.5708 117.185C62.6901 117.644 60.7262 118.206 59.2156 119.448C57.7718 120.636 57.0529 122.468 56.3616 124.155L56.2692 124.378C55.5678 126.044 54.6801 127.624 53.1428 128.665C51.1516 130.014 48.7568 129.849 46.4737 130.032C42.4537 130.356 39.167 133.27 37.5318 136.837C36.5416 138.996 36.1192 141.417 36.0356 143.779C35.9927 144.981 35.9866 146.231 36.1467 147.425C36.1978 147.807 36.6698 149.198 36.9104 149.165C37.4451 149.091 37.934 149.37 38.1007 149.797C39.4216 148.521 40.7804 147.281 42.183 146.086C45.6793 143.107 49.4452 140.408 53.4111 138.088C56.4379 136.317 59.6306 134.563 62.9367 133.237C62.6747 133.231 62.4163 133.283 62.1664 133.413C62.057 133.47 61.9482 133.333 62.0346 133.242C63.0759 132.146 64.3232 131.99 65.5807 132.282C65.849 132.197 66.1175 132.114 66.3871 132.036C66.5213 131.997 66.588 132.182 66.4786 132.253L66.1697 132.451C67.5415 132.91 68.8883 133.814 69.9546 134.527C73.0175 136.575 75.7135 139.078 78.4465 141.535L78.9434 141.98C81.349 144.129 83.8159 146.217 86.549 147.941C87.9797 148.843 89.4825 149.678 91.0587 150.298C92.4106 150.831 94.6118 151.167 95.245 152.596C95.8078 153.28 95.5727 154.153 94.9135 154.613C93.8018 155.837 91.578 155.046 90.2534 154.537C88.6564 153.922 87.1093 153.183 85.6338 152.317C82.7692 150.635 80.128 148.543 77.6675 146.318C75.0979 143.994 72.674 141.525 70.1747 139.128C69.0918 138.089 68.0339 137.027 66.9494 135.99L66.4047 135.473C65.8511 134.954 65.0625 134.145 64.2193 133.655C62.6308 134.603 61.0178 135.511 59.4436 136.484C57.2462 137.841 55.1135 139.296 53.0137 140.799C48.9713 143.693 45.1406 146.934 41.5843 150.408C35.0621 156.778 29.5053 164.053 24.651 171.756L24.2824 172.343C21.5239 176.752 18.9153 181.303 17.0656 186.174C15.0305 191.535 14.0407 197.173 13.503 202.863C12.9694 208.513 12.7894 214.191 12.193 219.836C11.5813 225.625 10.3763 231.286 9.00557 236.937L8.67867 238.277C7.4384 243.337 6.15826 248.398 5.52071 253.578C5.18036 256.345 4.97564 259.15 5.02191 261.939C5.06839 264.745 5.50909 267.488 5.86466 270.265C6.00092 271.328 4.95473 272.216 4.0186 272.357C2.94198 272.518 2.01705 271.831 1.6824 270.831C0.639164 267.712 0.449657 264.264 0.482403 260.991C0.515361 257.667 0.939375 254.365 1.53599 251.099C2.70937 244.674 4.52015 238.383 6.03494 232.035C7.36994 226.44 8.26592 220.836 8.74888 215.104C9.25022 209.157 9.55043 203.191 10.465 197.287C11.3678 191.459 13.0663 185.892 15.628 180.578C17.9604 175.739 20.8678 171.185 23.916 166.77C27.6176 161.41 31.683 156.309 36.2274 151.661C35.8192 151.644 35.4001 151.512 35.0152 151.272C33.8375 150.537 33.2891 149.099 33.1205 147.787C32.7259 144.717 32.8211 141.511 33.6104 138.509C34.8837 133.667 38.1884 129.364 42.9778 127.619C44.2106 127.169 45.5211 127.005 46.8275 126.973C48.0673 126.942 49.4213 127.104 50.6175 126.711C52.5215 126.085 53.3376 123.841 54.0525 122.141L54.0854 122.063C55.0021 119.896 56.1024 118.038 58.0879 116.685C60.2062 115.242 62.8603 114.585 65.3595 114.161ZM119.549 122.731C121.263 122.136 123.406 122.676 125.082 123.195C126.949 123.774 128.674 124.841 130.153 126.108C131.714 127.443 133.004 129.093 133.915 130.935L134.002 131.113C134.835 132.822 135.782 135.168 135.363 137.046C135.351 137.099 135.337 137.151 135.321 137.2C138.722 138.875 141.862 140.972 144.597 143.631C147.781 146.726 150.477 150.248 152.759 154.053C161.821 169.166 163.416 187.317 164.486 204.552L164.753 208.922C165.334 218.359 166.014 227.773 167.781 237.08L167.91 237.751C169.798 247.495 172.501 257.313 172.228 267.309C172.145 270.304 167.721 270.283 167.593 267.309C167.11 256.113 164.498 245.303 162.73 234.283C159.618 214.893 161.177 194.904 156.768 175.708C155.038 168.175 152.357 160.868 148.53 154.144C146.639 150.822 144.476 147.613 141.942 144.747C139.762 142.281 137.496 139.908 134.948 137.835C134.134 138.651 132.508 138.235 132.083 137.046C131.791 136.229 131.876 135.273 131.688 134.417C131.514 133.622 131.275 132.835 130.955 132.087C130.318 130.596 129.384 129.164 128.305 127.957C127.139 126.652 125.8 125.569 124.301 124.674C122.791 123.773 121.141 123.504 119.549 122.845C119.495 122.823 119.49 122.751 119.549 122.731ZM126.208 226.355C126.21 226.276 126.303 226.239 126.36 226.292C126.961 226.845 127.324 227.638 127.766 228.319C128.276 229.103 128.812 229.872 129.373 230.62C130.498 232.12 131.751 233.534 133.013 234.919C134.188 236.207 135.439 237.44 136.738 238.603C138.144 239.863 139.72 240.988 140.998 242.383C143.665 245.294 144.096 249.291 144.658 253.043L144.72 253.449C145.063 255.675 145.371 257.908 145.648 260.144C145.782 261.232 145.917 262.32 146.027 263.411L146.06 263.756C146.158 264.823 146.185 265.906 145.572 266.839C144.916 267.837 143.425 268.187 142.538 267.23C141.014 265.586 141.3 262.667 141.102 260.552C140.938 258.804 140.752 257.057 140.544 255.313L140.439 254.442C140.194 252.458 139.995 250.435 139.541 248.485C139.141 246.769 138.379 245.473 137.129 244.23C135.869 242.977 134.56 241.808 133.398 240.459C132.165 239.028 131.052 237.494 130.05 235.892C129.193 234.523 128.506 233.032 127.876 231.544L127.772 231.296C127.163 229.844 126.16 227.954 126.208 226.355ZM148.203 163.997C148.216 163.795 148.516 163.791 148.52 163.997C148.558 165.739 148.594 167.48 148.63 169.222C148.921 183.256 148.742 197.323 150.149 211.309C150.813 217.903 152.035 224.401 153.45 230.871C154.174 234.182 154.933 237.485 155.654 240.796C156.358 244.023 157.112 247.266 157.669 250.523C158.217 253.724 158.708 256.95 158.929 260.192L158.956 260.615C159.051 262.186 159.503 264.496 158.639 265.888C157.702 267.396 155.909 267.423 154.905 265.984C153.962 264.632 154.197 262.228 154.03 260.615C153.861 258.973 153.682 257.328 153.479 255.689C153.082 252.492 152.56 249.302 152.016 246.127C150.885 239.514 149.243 232.985 148.032 226.383C146.79 219.618 145.907 212.804 145.87 205.916C145.833 198.97 146.568 192.037 146.939 185.106C147.316 178.066 147.744 171.032 148.203 163.997ZM81.9326 120.346C82.3093 119.077 83.6386 118.284 84.9353 118.64C86.1237 118.967 87.1048 120.41 86.6403 121.645C86.1332 122.992 85.2471 124.14 84.5001 125.365C83.8101 126.496 82.8036 127.387 82.1007 128.498L82.8753 129.334C83.2628 129.75 83.6514 130.165 84.0444 130.572L85.3954 131.972C86.4475 133.059 87.5063 134.142 88.5949 135.192C91.796 138.281 95.0479 141.268 98.6329 143.913C99.449 144.515 100.271 145.114 101.117 145.674L101.432 145.883C102.012 146.263 102.659 146.637 103.36 146.572C105.063 146.416 106.601 144.607 107.771 143.481L107.833 143.423C110.732 140.663 113.417 137.645 115.765 134.4C116.286 133.679 116.791 132.946 117.282 132.204C116.147 130.878 116.418 128.289 116.356 126.681C116.312 125.55 116.308 124.419 116.302 123.287L116.299 123.059C116.285 122.326 116.252 121.624 116.727 121.021C116.755 120.986 116.812 120.987 116.848 121.005C117.498 121.347 117.699 121.918 117.977 122.559L118.006 122.625C118.344 123.394 118.667 124.171 118.995 124.944C119.338 125.754 119.652 126.576 119.971 127.395C120.119 127.777 120.261 128.159 120.399 128.544C120.483 128.79 120.57 129.035 120.66 129.279L120.681 129.298C120.799 129.398 120.9 129.504 120.986 129.614C121.349 129.795 121.638 130.126 121.773 130.613C122.068 131.672 121.458 132.536 120.914 133.376C118.704 136.792 116.185 140.046 113.385 142.999C111.994 144.465 110.531 145.866 109.008 147.195L108.741 147.426C107.373 148.602 105.888 149.716 104.06 149.992C101.922 150.313 100.181 149.249 98.544 148.024L98.3806 147.901C96.8286 146.726 95.3079 145.509 93.8345 144.236C90.8305 141.642 87.9727 138.856 85.4364 135.8C82.9693 132.827 80.5306 129.503 79.0099 125.926C78.9171 125.708 79.161 125.48 79.3519 125.662C80.0948 126.369 80.8095 127.115 81.5157 127.87C81.5354 126.758 81.3303 125.637 81.4443 124.518C81.5836 123.158 81.5434 121.656 81.9326 120.346Z" fill="black"/>
<path fill-rule="evenodd" clip-rule="evenodd" d="M131.571 72.561C131.069 66.0633 131.847 59.2527 129.342 53.0766C124.976 42.8293 112.732 39.4126 103.239 35.5113C99.4364 34.3872 86.6402 34.2301 82.1875 32.7423C72.11 29.3751 69.7022 25.3632 61.6947 31.7744C60.343 32.8697 59.4973 34.06 58.8804 35.6863L58.9058 35.6933C58.7296 36.3713 58.9185 37.0478 59.3154 37.5646C55.8435 41.1149 54.3906 46.4375 56.172 51.1635C61.9854 63.4618 61.712 70.1115 59.8389 83.3327C57.3929 95.6756 62.9824 100.184 72.2393 106.9C71.8624 107.631 71.7842 108.603 72.2756 109.248C82.9799 124.296 103.163 131.48 120.456 123.843C127.475 120.717 130.609 113.239 132.397 106.491C134.481 98.9356 135.121 90.9741 133.425 83.2775C132.741 79.718 131.85 76.1842 131.571 72.561Z" fill="white"/>
<path fill-rule="evenodd" clip-rule="evenodd" d="M69.8263 0.57105C71.1256 0.375866 72.1068 1.18232 72.5736 2.319L72.5981 2.38021C72.7481 2.76698 72.915 3.14318 73.0946 3.51305C76.346 1.91735 80.9854 2.32737 83.0432 5.55892C84.5115 7.86686 83.6157 10.606 83.0622 13.0534L82.6988 14.666C83.4012 15.1132 83.9309 15.9139 83.9061 16.7431L83.903 16.807L83.7552 19.0557C84.2242 18.5802 84.653 18.0624 85.0354 17.5108C85.2995 17.0268 85.5847 16.5512 85.8911 16.0905C87.6932 13.3789 91.739 15.7354 90.2516 18.6394C89.9664 19.1995 89.6453 19.73 89.3009 20.2414C88.9122 20.9959 88.5932 21.7716 88.3481 22.5684C89.0516 22.8748 89.5925 23.5554 89.6495 24.5826C89.7826 26.9814 88.5235 28.9829 86.5206 30.2404C85.9312 30.6103 85.3228 30.6821 84.7714 30.5447C84.6742 30.6758 84.577 30.8068 84.484 30.94C85.2826 31.5888 86.003 32.3285 86.6221 33.1486C88.4854 32.8696 90.3594 32.7386 92.2333 32.7343C94.5235 31.6121 97.2657 31.6353 99.727 32.0559C101.312 32.3264 102.833 32.8527 104.392 33.231C106.035 33.6283 107.704 33.6431 109.367 33.9137C111.463 34.2539 113.301 35.2219 114.457 36.7669C115.726 36.8049 117.062 37.3249 118.169 38.0308C120.746 39.6751 123.309 41.3426 125.88 42.9975C126.867 43.6328 127.236 44.6471 127.054 45.7784L127.042 45.8507L126.955 46.3199L127.159 46.6087C127.945 47.7203 128.802 48.8846 129.311 50.1116C130.253 51.4705 131.104 52.895 131.859 54.3639C132.875 56.3379 133.714 58.4303 134.282 60.5776C134.423 61.1208 134.565 61.6682 134.658 62.2219C134.791 63.0039 134.586 63.6105 134.474 64.3608C134.335 65.3119 134.284 66.2756 134.136 67.2288C134.037 67.8608 133.5 68.1714 132.938 68.1883C133.15 69.7967 133.302 71.4157 133.447 73.0219C133.652 75.3172 133.792 77.6188 133.912 79.9204C134.533 80.8229 135.803 81.5372 136.72 81.7845C137.99 82.1248 139.321 81.7549 140.521 81.3217C141.275 81.049 141.894 81.998 141.526 82.632C140.371 84.6229 137.899 84.6145 136.027 83.7332C135.235 83.3612 134.54 82.8222 134.024 82.1206C134.056 82.7884 134.09 83.4563 134.123 84.1263L134.155 84.7331C134.536 91.8201 135.357 99.1509 134.026 106.168C131.721 118.323 121.667 127.578 109.384 128.296C102.939 128.674 97.5713 126.769 94.9023 125.707C92.2333 124.644 93.2707 122.478 95.1235 123.097C98.3153 124.164 104.179 125.753 109.426 125.067C121.794 123.45 132.281 117.266 131.204 90.6316C131.051 86.8547 130.581 83.0759 130.479 79.299C130.382 75.6067 130.418 71.9123 130.255 68.2222L130.201 66.9631C130.137 65.4919 130.069 64.0139 129.959 62.5411C129.826 61.9704 129.716 61.3913 129.554 60.8312C129.112 59.3074 128.535 57.8258 127.819 56.4119C127.661 56.5324 127.483 56.619 127.291 56.6528C125.831 56.9149 124.462 56.841 123.095 56.2323C122.457 55.9512 121.895 55.5771 121.371 55.1142C121.122 54.8965 120.955 54.6852 120.824 54.4654C120.163 54.4759 119.502 54.2773 119.088 53.8017C118.615 53.2597 118.537 52.6999 118.722 52.1816L118.741 52.13L118.695 52.113C118.137 53.5566 117.026 54.8268 115.807 55.6849C113.88 57.046 111.469 57.4391 109.158 57.475C106.606 57.513 103.914 57.1199 101.396 56.7184C100.731 56.6127 100.069 56.4922 99.4206 56.3295C99.3953 56.3548 99.3699 56.3844 99.3425 56.4098C97.1812 58.4789 94.1411 59.0115 91.3988 57.8301C89.8143 57.1474 88.4854 56.0484 87.3108 54.7887C87.2939 55.4482 87.2601 56.1076 87.203 56.7606L87.1794 57.02C87.0625 58.2363 86.8374 59.5265 85.9185 60.4043C84.4333 61.8267 82.2784 61.2561 80.565 60.3303C80.5671 60.3747 80.5671 60.4212 80.5671 60.4677C81.0298 62.0402 81.4946 63.6147 81.9594 65.1893L82.0595 65.5247C82.3975 66.6427 82.7682 67.7622 82.8699 68.9323C83.0643 71.1684 81.577 73.377 79.0925 72.6267C77.7893 72.2346 76.7452 71.1384 75.7434 70.2604L75.1122 69.7143C76.7453 75.0551 77.8777 80.5862 77.9833 86.1595C77.9897 86.4617 77.7298 86.69 77.4425 86.7005C76.7707 86.728 76.0481 86.5948 75.3721 86.3264C75.334 86.3243 75.296 86.3222 75.2559 86.3159C74.1023 86.1489 73.0312 85.7325 72.0868 85.1175C72.3045 85.8086 72.4016 86.5505 72.3446 87.3261C72.3298 87.5142 72.0361 87.5797 71.9939 87.3726C71.4488 84.6906 68.3115 82.6637 65.6073 83.1773C62.7045 83.7289 60.5664 86.2271 60.0425 89.0698C59.4805 92.1238 60.5559 95.6554 62.5481 98.012C63.465 99.0983 64.6714 100.005 66.1037 100.233C66.7587 100.337 67.439 100.301 68.0749 100.115C68.3453 100.035 68.5988 99.9226 68.8566 99.8169C69.2326 99.6647 69.6721 99.6415 70.027 99.4809C70.8319 99.1195 71.6411 99.8613 71.2333 100.688C70.8784 101.408 70.5594 101.894 69.9699 102.266C70.4474 102.85 70.8805 103.661 71.0411 103.879C71.8608 104.987 72.6932 106.033 73.627 107.045C74.5777 108.072 75.615 109.011 76.7115 109.879L77.1724 110.244C78.2285 111.082 79.1482 111.858 79.8932 113.06C80.4805 114.009 79.7199 115.296 78.6192 115.281C75.1756 115.233 72.6721 112.206 70.889 109.562C70.6354 109.184 70.3967 108.785 70.1749 108.374C70.0946 108.503 70.0059 108.624 69.9066 108.734L70.103 109.262C70.6861 110.818 68.1742 111.834 67.4453 110.382C66.915 109.33 66.3002 108.328 65.6157 107.381C65.2122 107.324 64.8171 107.079 64.5974 106.762C64.0418 105.957 63.4185 105.143 62.8925 104.285C62.6009 104.008 62.3009 103.742 61.9946 103.482C61.9059 103.56 61.815 103.638 61.7284 103.721C61.3439 104.598 60.8685 105.399 60.2791 106.153L60.1527 106.314C59.0235 107.738 57.5527 109.195 55.7326 109.543C55.177 109.649 54.6425 108.958 55.1347 108.516C56.4087 107.371 57.915 106.591 59.0897 105.312C59.6684 104.682 60.1997 103.988 60.6567 103.261L60.7608 103.093C60.8368 102.968 60.915 102.843 60.9953 102.717C60.465 102.355 59.9347 101.992 59.4045 101.628C57.9447 102.876 56.0436 103.447 54.429 104.48L54.2685 104.585C52.8087 105.561 51.2706 103.401 52.4411 102.216C53.7313 100.914 54.8083 99.3608 55.9513 97.9135C55.4138 96.9231 55.1595 95.752 55.0642 94.5685C55.0266 94.2335 54.9972 93.8983 54.9678 93.5631C54.1481 93.5757 53.3242 93.2946 52.627 92.8107L52.3629 92.6226C51.5157 92.8931 50.6263 93.0241 49.7749 93.0009C47.7721 92.9417 46.9523 90.6528 48.2052 89.205C49.4833 87.7256 51.7206 87.4022 53.4932 88.1208C53.5502 88.0912 53.6094 88.0595 53.6664 88.0278C53.5819 87.6389 53.6007 87.2862 53.6968 86.9763L53.669 86.7874C53.2792 86.189 53.0229 85.506 52.9257 84.7842C52.8488 84.2125 52.8645 83.6459 52.9967 83.0814C53.0406 82.8935 53.1321 82.6988 53.2021 82.5029C53.058 82.1389 52.9733 81.7627 52.9471 81.3844C52.9067 81.3365 52.8666 81.2872 52.8285 81.2339C51.949 79.9986 52.1267 78.5101 52.9637 77.5104C52.9676 77.4468 52.9735 77.3831 52.9821 77.32C52.9331 77.2096 52.8881 77.0982 52.8471 76.9856C52.0293 76.1603 51.4289 75.1671 51.5409 73.9364C51.6066 73.2124 51.904 72.5606 52.3542 72.0734C52.2744 71.8371 52.2668 71.5634 52.3635 71.3349C51.645 69.4231 51.7359 67.1204 52.253 64.9822C52.139 64.6567 52.0798 64.3037 52.0925 63.9296C52.1516 62.3424 53.5249 60.8841 55.1516 60.9031C55.3475 60.9048 55.5309 60.9304 55.7071 60.9678L55.7094 60.9299C55.7717 60.4536 55.9027 60.0133 56.0939 59.6183C55.9999 59.5843 55.9128 59.5355 55.8366 59.4706C54.7942 60.0268 53.6911 60.4521 52.5347 60.7418C51.6843 60.9549 50.8133 59.988 51.3418 59.1895C51.5871 58.819 51.8578 58.4863 52.1493 58.1824C51.7348 58.1847 51.314 58.2128 50.8883 58.2676C50.1235 58.3669 49.2699 57.8449 48.7735 57.139C48.1566 57.7392 47.5376 58.3373 46.9185 58.9354C45.3509 60.455 42.9826 59.337 42.7354 57.3334C42.2685 57.2087 41.8333 56.9973 41.4509 56.6951C38.9791 57.7688 36.3192 58.3584 33.6002 58.4705C31.6481 58.5508 30.5073 56.2766 31.4199 54.6704C32.0326 53.5925 32.7932 52.6245 33.6699 51.7833C32.3094 52.1997 30.9045 52.4998 29.4699 52.6921C28.6946 52.7957 27.5981 52.1532 27.2876 51.441C26.1002 48.7019 26.2016 45.8465 27.5685 43.1814C27.6214 43.0757 27.6805 42.9743 27.7376 42.8728C27.8791 42.5199 28.0333 42.1711 28.2002 41.8287C26.5185 40.0745 26.3728 37.4665 27.2791 35.2832C26.9157 34.6936 26.7763 33.9834 27.0235 33.3409C27.727 31.4916 28.7411 29.7839 30.0214 28.3171C29.8988 28.0804 29.7911 27.8289 29.7002 27.5584C28.9798 25.3709 29.8143 22.7311 31.4981 21.2073C32.5566 20.2478 33.7735 19.6729 35.0728 19.3051C35.6199 18.3372 36.3235 17.4643 37.1432 16.7288C37.1749 16.659 37.2066 16.5893 37.2425 16.5195C38.5185 14.1144 40.8425 12.8251 43.3333 12.5271C43.4305 11.5866 44.0643 10.6884 44.9854 10.3967C45.239 9.58303 45.6171 8.80526 46.1368 8.09935C46.9545 6.98764 48.3129 6.4635 49.5932 7.19265C50.2946 7.59211 50.9664 8.05074 51.596 8.55798C51.8788 8.42531 52.1994 8.33947 52.5611 8.31209L52.6523 8.30647L54.7354 8.2008C55.608 7.81402 56.4784 7.40823 57.3509 7.01301C57.8749 6.57974 58.4601 6.21833 59.0981 5.94991C59.8206 5.64768 60.5601 5.47649 61.3016 5.41943C61.9037 5.22287 62.5101 5.04956 63.127 4.9143C64.5763 4.59727 66.0932 4.41974 67.5974 4.43453C67.6282 4.04504 67.6435 3.6509 67.6405 3.25209L67.6376 3.0523C67.6037 1.77363 68.6242 0.752811 69.8263 0.57105ZM68.3664 102.875C68.1594 102.92 67.9502 102.955 67.7411 102.981C67.8045 103.137 67.8678 103.294 67.9291 103.45C68.0981 103.545 68.2692 103.636 68.4404 103.721C68.3897 103.433 68.3601 103.144 68.3664 102.875ZM57.5121 99.6485L57.3717 99.9072C57.3489 99.9495 57.3265 99.9913 57.3045 100.032C57.6023 100.009 57.9023 100.016 58.1981 100.049L58.1973 100.018C58.1592 100.005 58.1212 99.9932 58.0849 99.9754C57.8808 99.8774 57.6911 99.7675 57.5121 99.6485ZM63.3784 87.8439C65.2475 87.9529 66.8311 88.2395 68.531 89.0575L68.677 89.129C70.1791 89.875 72.6636 91.253 72.4545 93.2291C72.3953 93.7913 71.9876 94.3831 71.3453 94.3387C69.5854 94.2183 68.5798 92.4429 67.3883 91.3355C66.1861 90.2195 64.7094 89.0719 63.2537 88.3047C63.048 88.1967 63.129 87.8548 63.3529 87.8438L63.3784 87.8439ZM54.9023 61.8077C54.4545 61.8225 54.6045 62.2579 54.8347 61.8943C54.8537 61.8647 54.877 61.8352 54.9023 61.8077ZM79.079 32.7424C74.8371 32.854 70.568 35.3595 67.3904 37.8921C64.6259 40.0955 62.2388 42.7162 60.1251 45.5409C59.5813 46.9476 59.1144 48.3838 58.7199 49.8305C58.4601 50.7858 58.2974 51.7516 58.0798 52.7154L58.0122 53.0109C57.8413 53.3304 57.7143 53.6743 57.6218 54.0296C58.0069 54.4159 58.5066 54.6926 59.0567 54.8238C59.234 54.8661 59.3812 54.9576 59.4976 55.0789C59.9404 54.3396 60.3275 53.5593 60.5527 52.7321L60.5609 52.6938C61.4121 51.2991 62.3366 49.9478 63.3277 48.6427C66.0615 45.0392 69.0721 41.7548 72.6911 39.022C75.4354 36.9508 78.503 35.3276 81.765 34.273C80.9666 33.6286 80.0599 33.1188 79.079 32.7424Z" fill="black"/>
<path fill-rule="evenodd" clip-rule="evenodd" d="M112.152 111.274C110.732 110.695 109.465 109.728 108.538 108.493C108.216 108.063 108.133 107.61 108.2 107.195C108.276 106.729 108.552 106.306 108.928 106.023C109.305 105.739 109.777 105.598 110.233 105.67C110.63 105.732 111.024 105.949 111.337 106.399L111.402 106.489C111.953 107.235 112.67 107.846 113.488 108.241C114.276 108.621 115.158 108.798 116.07 108.695C117.808 108.499 119.005 107.559 120.278 106.282C120.436 106.121 120.594 105.955 120.752 105.786C120.852 105.633 120.991 105.534 121.146 105.483C121.317 105.425 121.511 105.429 121.689 105.491C121.86 105.55 122.013 105.664 122.116 105.815C122.213 105.958 122.269 106.135 122.251 106.339C122.134 107.661 121.443 108.842 120.461 109.769C119.37 110.799 117.924 111.511 116.563 111.761C115.064 112.036 113.536 111.839 112.152 111.274ZM117.271 90.8663C118.866 91.8364 121.297 94.0985 119.581 96.5035C117.56 98.6241 114.652 96.1927 113.219 95.093C111.89 94.2408 110.396 96.4327 111.629 97.4278C121.986 105.099 126.19 91.1199 118.078 89.7256C117.184 89.572 116.853 90.5661 117.271 90.8663ZM98.7106 81.9429C98.8869 79.7541 102.219 79.257 102.551 81.423C102.847 83.3632 102.498 85.1455 101.624 86.8923C100.79 88.5611 98.6917 87.7825 98.5331 86.2629C98.3204 84.2259 98.601 83.3044 98.7106 81.9429ZM124.076 80.9739C124.541 80.3652 125.212 79.9497 126.015 80.1845C128.526 80.9185 127.786 84.4846 126.904 86.2204C126.425 87.163 124.876 87.4021 124.176 86.5721C123.035 85.2186 122.489 82.5157 123.94 81.1825C123.979 81.1136 124.023 81.044 124.076 80.9739ZM101.589 72.3654L101.986 72.2959C103.213 72.0836 104.738 71.8796 105.606 72.8665C106.067 73.3898 106.225 74.3624 105.606 74.8633C104.518 75.7446 103.314 75.4031 102.01 75.4777C100.935 75.5394 99.9021 75.7174 98.8667 76.0135C96.5951 76.663 94.7442 77.8486 92.8041 79.1505C92.5496 79.3213 92.2897 78.9956 92.4112 78.7574C93.5311 76.563 95.7015 74.7604 97.8754 73.6616C99.0357 73.0751 100.305 72.5885 101.589 72.3654ZM121.787 71.3823L122.091 71.4445C125.395 72.1353 129.687 73.5153 131.251 76.7615C131.311 77.2205 131.248 77.3189 131.197 77.3832L131.18 77.4046C131.137 77.4595 131.104 77.5351 130.905 77.5976C130.85 77.5844 130.794 77.5705 130.737 77.5557C130.02 77.3677 129.453 77.1087 128.904 76.84L128.308 76.5465C127.617 76.2076 126.92 75.881 126.181 75.6399C124.605 75.1255 122.983 74.7631 121.337 74.5696C120.98 74.5277 120.636 74.4072 120.365 74.2007C120.108 74.0046 119.911 73.7332 119.821 73.3724C119.705 72.9056 119.739 72.5521 119.989 72.1309C120.177 71.8146 120.447 71.5953 120.756 71.4694C121.071 71.3411 121.43 71.3108 121.787 71.3823Z" fill="black"/>
<path fill-rule="evenodd" clip-rule="evenodd" d="M98.4489 112.598C100.159 108.59 103.893 105.644 108.191 104.566C111.347 103.777 114.66 103.803 117.877 104.116C119.563 104.279 121.371 104.412 122.96 105.038C124.317 105.573 125.422 106.585 126.253 107.772C127.243 109.179 127.916 110.789 128.389 112.439C128.456 112.674 128.519 112.91 128.578 113.148C128.372 114.393 127.936 115.453 126.783 116.235C125.658 117 124.316 117.313 122.978 117.424C122.846 117.361 122.72 117.296 122.603 117.229C120.518 116.035 119.051 113.213 116.419 113.595C114.07 113.936 112.524 116.893 111.127 118.626C106.644 119.149 102.164 117.801 98.5156 115.236C98.3304 114.359 98.3196 113.473 98.4489 112.598ZM131.625 109.557C131.266 108.551 130.815 107.575 130.279 106.657C128.509 103.619 125.791 101.198 122.565 99.8144C114.934 96.5455 105.06 98.8498 98.8969 104.211C96.7916 106.044 94.663 108.737 94.0193 111.634C93.8271 111.672 93.6456 111.772 93.4962 111.913C89.0436 109.108 84.4582 106.41 80.8701 102.523C78.2644 99.698 76.452 96.3553 75.3422 92.6821C75.2515 92.3798 74.7641 92.424 74.7789 92.7585C74.7831 92.8368 74.7874 92.9149 74.7916 92.9931C74.7452 92.8493 74.5257 92.9233 74.5088 93.063C73.9118 97.5251 73.1649 102.256 73.8527 106.741C74.2641 109.418 75.4794 111.377 77.104 113.493C78.8446 115.761 80.8153 117.87 82.8302 119.893C84.1088 121.177 85.4443 122.658 87.0098 123.6C88.8307 124.694 90.8962 125.525 92.8394 126.369C94.8164 127.23 96.8229 128.026 98.8673 128.716C102.954 130.099 107.178 131.056 111.476 131.475C114.917 131.809 118.85 132.173 122.148 130.878C124.675 129.886 126.716 128.092 128.334 125.933C130.096 123.583 131.488 120.905 132.258 118.082C133.058 115.149 131.794 110.03 131.625 109.557Z" fill="black"/>
</svg>
