<svg width="170" height="259" viewBox="0 0 170 259" fill="none" xmlns="http://www.w3.org/2000/svg">
<path fill-rule="evenodd" clip-rule="evenodd" d="M131.479 149.122C129.644 148.468 127.876 147.712 126.265 146.601C121.62 143.142 118.592 137.938 115.731 133.007C111.7 125.835 108.829 118.193 106.844 110.221C105.991 106.796 105.701 102.824 103.764 99.7877C99.3709 93.4293 86.4901 94.2531 79.6503 95.3692C75.0701 96.18 74.1234 101.308 73.0831 105.102C72.2169 108.255 71.6498 111.443 71.1739 114.674C70.0415 115.419 68.7631 116.024 67.5445 116.551C54.2644 120.625 51.9303 128.177 46.858 139.843C38.2909 156.8 15.0441 163.439 11.5326 183.506C9.27013 196.755 15.7039 209.219 22.337 220.233C28.5145 232.263 37.1386 238.037 50.8729 235.195C63.755 232.304 76.1353 227.468 88.7906 223.731C94.9201 222.224 101.04 218.302 107.488 219.669C120.773 222.654 134.423 224.058 148.039 223.67C167.155 224.444 167.152 206.089 165.19 191.875C163.816 169.755 152.663 155.551 131.479 149.122Z" fill="white"/>
<path fill-rule="evenodd" clip-rule="evenodd" d="M132.757 181.13C134.354 182.187 135.698 183.789 136.776 185.475C132.274 185.007 127.779 184.467 123.294 183.852C123.881 183.476 124.474 183.109 125.08 182.763C127.291 181.516 130.287 179.497 132.757 181.13ZM57.9501 194.445C57.1251 194.122 56.8059 192.863 56.4843 192.142C55.4761 189.88 54.5561 187.579 53.5988 185.295C57.2335 184.259 60.768 183.109 64.5332 182.556C68.5817 181.963 72.69 181.819 76.7759 181.953C85.0521 182.223 93.2514 183.576 101.388 185.027C109.515 186.476 117.642 187.868 125.826 188.961C133.845 190.031 141.888 190.815 149.947 191.503C151.512 191.636 154.123 192.2 155.382 190.967C156.379 189.991 156.412 188.19 155.164 187.397C154.387 186.902 153.261 186.895 152.373 186.781C151.255 186.637 150.133 186.541 149.008 186.466C148.55 186.436 148.092 186.408 147.633 186.38C151.313 184.992 155.156 184.236 159.145 184.447C159.371 185.818 160.387 187.228 160.943 188.359C161.915 190.333 162.672 192.331 163.169 194.477C164.208 198.964 164.253 203.62 163.96 208.196C163.69 212.011 163.111 216.232 160.12 218.934C157.855 220.98 154.659 221.737 151.694 221.975C148.249 222.252 144.75 221.957 141.333 221.495C136.54 220.846 131.726 219.989 127.027 218.84C117.928 216.615 109.206 213.075 101.159 208.274C97.2347 205.934 93.4902 203.3 89.512 201.049C85.4584 198.754 81.1451 196.973 76.616 195.868C71.5475 194.631 66.2489 194.103 61.0394 194.408C60.1354 194.461 58.8294 194.789 57.9501 194.445ZM52.0764 192.148C52.609 193.877 53.0166 195.851 54.1534 197.304C55.2794 198.744 56.9782 199.252 58.7381 199.38C60.8601 199.534 63.007 199.435 65.1336 199.514C69.4952 199.676 73.7971 200.385 77.9666 201.685C81.8523 202.897 85.4592 204.787 88.9337 206.883C92.1467 208.822 95.2654 210.904 98.4794 212.837C97.624 213.229 96.7783 213.653 95.928 214.023C94.1444 214.798 92.3499 215.545 90.5474 216.274C86.9928 217.711 83.4232 219.114 79.8171 220.416C72.5457 223.043 65.1547 225.338 57.6748 227.293C54.1073 228.226 50.4892 229.315 46.7829 229.47C43.4964 229.607 40.4523 228.678 37.8017 226.723C32.3041 222.669 27.9302 216.817 24.3944 211.044C22.2938 207.614 20.4606 204.011 18.9444 200.285C18.1775 198.401 17.482 196.488 16.856 194.552C16.5623 193.643 16.2839 192.729 16.0202 191.811C15.9042 191.408 15.7931 191.003 15.683 190.597C21.3047 188.881 26.993 187.332 32.8149 186.472C35.9233 186.013 39.0731 185.78 42.2155 185.814C43.7753 185.831 45.3342 185.915 46.8858 186.076C47.7209 186.163 48.5527 186.274 49.3809 186.413C49.7231 186.469 50.0749 186.553 50.4277 186.615C50.9666 188.463 51.51 190.309 52.0764 192.148ZM168.282 184.803C168.585 184.19 168.713 183.586 168.822 182.919C168.905 182.41 169.124 181.693 168.932 181.032C168.716 180.292 168.129 179.629 167.708 178.998C167.242 178.3 166.777 177.602 166.313 176.903C165.384 175.506 164.457 174.107 163.532 172.708C159.753 166.993 156 161.261 152.241 155.533C148.905 150.45 145.625 145.321 142.188 140.306C139.248 136.018 136.044 131.8 132.021 128.465C126.934 124.248 120.876 122.262 114.549 120.712C113.858 119.994 112.935 119.602 111.948 119.682C110.554 118.1 109.447 116.996 108.944 114.984C108.704 114.021 108.779 111.314 107.841 110.744C106.727 110.067 106.146 110.963 105.838 111.973C104.811 115.353 105.99 119.897 108.705 123.282C107.561 127.236 106.045 132.857 103.339 136.025C100.443 139.417 96.4363 140.473 92.1137 140.543C83.8705 140.675 75.6359 137.61 69.3484 132.299C67.4373 130.685 65.6624 128.881 64.0566 126.964C62.8521 125.525 61.4273 123.305 60.4851 121.627C60.4851 120.973 59.7133 120.289 67.571 119.761C75.4287 119.232 76.0247 108.469 76.1994 107.004C76.3414 105.815 76.9452 103.968 76.1073 102.998C75.7517 102.586 75.022 102.52 74.5711 102.8C73.721 103.328 73.4417 104.679 73.1744 105.596C72.8001 106.88 71.5762 114.854 69.2571 115.777C68.1714 116.209 66.9262 116.217 65.7778 116.297C64.3595 116.396 62.9383 116.469 61.5258 116.634C61.0048 116.695 60.4365 116.863 59.9225 116.868C59.588 116.872 59.243 116.709 58.9198 116.595C57.8288 116.209 56.7387 116.498 55.6147 116.65C45.6775 117.986 35.4456 121.035 26.9696 126.521C19.4987 131.357 14.2354 138.311 10.7624 146.442C7.21881 154.74 5.18768 163.714 3.4855 172.547C2.91529 175.507 2.41733 178.481 1.98951 181.464C1.57606 184.347 1.05888 187.295 0.935078 190.207C0.886064 191.359 1.16134 192.43 1.58494 193.482C2.06198 194.667 3.18951 195.134 4.27099 195.687C6.64501 196.902 9.14937 197.844 11.7296 198.511C13.3059 201.38 14.6324 204.361 15.6985 207.454C15.303 208.238 15.2947 209.409 15.2187 210.171C15.03 212.068 14.9493 213.975 14.9324 215.881C14.8984 219.701 15.128 223.518 15.308 227.332C15.4906 231.2 16.0973 246.464 16.1962 248.328C16.2731 249.776 16.1696 251.801 16.9321 253.087C18.1037 255.062 20.9956 254.996 22.335 253.394C55.6147 260.551 118.171 258.395 143.366 254.794C146.644 254.326 145.615 254.845 146.448 254.017C147.074 253.395 147.606 252.329 147.779 251.473C148.01 250.33 147.637 249.296 146.983 248.371C146.295 247.399 146.17 245.824 145.915 244.668C145.311 241.935 145.01 229.933 144.728 228.602C144.64 228.188 144.555 227.75 144.453 227.312C149.074 227.749 153.889 227.749 158.286 226.203C160.779 225.326 163.105 223.949 164.894 221.982C167.062 219.601 168.267 216.603 168.887 213.474C169.687 209.439 169.857 205.26 169.7 201.158C169.482 196.311 168.678 191.395 166.683 186.944C167.34 186.334 167.89 185.599 168.282 184.803Z" fill="black"/>
<path fill-rule="evenodd" clip-rule="evenodd" d="M123.508 42.7506C116.542 32.8794 99.0358 31.7675 87.9719 31.83C66.1225 31.648 61.5474 56.7722 60.4064 74.3777C58.0758 74.7742 55.8095 75.587 54.2717 77.4192C52.3991 79.6503 51.7523 83.4797 53.5078 85.9749C54.674 87.6317 56.5151 88.1854 58.4411 88.2777C64.8193 87.6687 66.1273 93.3563 69.2687 97.6211C77.3298 108.515 91.2945 112.049 104.103 112.103C108.453 112.219 113.694 112.546 116.48 108.451C125.28 93.1922 125.471 72.9553 126.014 55.6635C126.088 51.2366 126.069 46.5502 123.508 42.7506Z" fill="white"/>
<path fill-rule="evenodd" clip-rule="evenodd" d="M84.9336 1.35412C85.7212 0.163368 87.4494 -0.298221 88.6475 0.585012C89.6451 -0.032554 90.9 0.0976381 91.7966 0.848566C92.8809 0.20754 94.2273 0.466233 95.0776 1.36003C96.4401 0.615235 98.2384 1.16538 98.9679 2.57657C100.343 2.42397 101.639 3.32432 102.005 4.62751C102.07 4.68013 102.134 4.73445 102.198 4.78856C103.022 4.82808 103.804 5.15102 104.266 5.91738C104.497 6.30013 104.603 6.74989 104.588 7.19055C105.08 7.45685 105.478 7.89372 105.648 8.45992C105.808 8.99084 105.748 9.51604 105.538 9.97361C106.224 10.7034 106.405 11.8409 105.919 12.7575C106.12 13.1024 106.225 13.5101 106.208 13.9339C106.184 14.5614 105.893 15.0672 105.497 15.4989C105.995 16.3972 105.801 17.5495 104.992 18.1793C104.528 19.827 103.352 20.9233 101.55 21.5958C100.645 21.9335 99.6985 22.1937 98.7336 22.3847C102.595 22.9044 106.393 23.8179 110.042 25.1798C110.24 25.254 110.408 25.2251 110.537 25.1386L110.778 25.2631C111.783 25.8147 112.768 26.4129 113.727 27.0533C113.727 26.9476 113.729 26.8419 113.733 26.7341C113.715 25.8644 113.806 25.0078 114.037 24.1821C113.735 23.7701 113.509 23.3005 113.386 22.8165C113.079 21.6089 113.663 19.8904 114.712 19.4778C115.079 18.4579 115.915 17.7198 116.94 17.4294C117.021 17.3561 117.108 17.2849 117.204 17.2187C117.42 17.0703 117.656 16.9691 117.899 16.9103C118.025 16.3577 118.333 15.8489 118.844 15.492C119.566 14.9879 120.419 14.9332 121.169 15.2081C121.311 15.1602 121.456 15.1185 121.602 15.0824C122.809 14.0548 124.69 14.1305 125.751 15.3328C126.48 14.9995 127.339 14.9847 128.085 15.4332C128.682 15.7921 129.054 16.3708 129.199 17.0059C130.33 17.0405 131.364 17.7908 131.69 18.9106C132.731 19.0285 133.583 19.8439 133.764 20.8702C134.429 20.9628 135.042 21.2751 135.416 21.8963C135.588 22.1835 135.682 22.4978 135.706 22.8125C136.042 22.9738 136.343 23.2179 136.571 23.5368C136.969 24.0956 137.046 24.7481 136.9 25.362L137.002 25.5653C137.111 25.7961 137.198 26.0436 137.275 26.2949C137.625 26.8003 137.787 27.418 137.755 28.0386C137.83 28.3011 137.902 28.5642 137.961 28.8286C138.198 29.8663 138.287 30.9717 138.124 32.0284C138.044 32.5399 137.928 33.0429 137.763 33.5311C137.746 33.6241 137.718 33.7108 137.687 33.7932C137.596 34.1779 137.48 34.5562 137.332 34.9261C136.977 35.3974 136.605 35.856 136.214 36.2998C135.885 36.7944 135.509 37.2509 135.084 37.6694C134.778 37.9716 134.442 38.2527 134.085 38.5063C133.376 39.0746 132.583 39.5178 131.737 39.8061C131.586 39.7744 131.434 39.7497 131.282 39.7254C130.321 40.2546 128.809 40.3144 127.884 40.3108C126.866 40.307 125.933 40.0496 125.157 39.5633C125.247 39.7423 125.337 39.9215 125.426 40.1012C125.404 40.1141 125.38 40.1257 125.361 40.1407C125.193 39.8628 125.006 39.6159 124.785 39.4384C124.484 39.1955 123.998 39.1738 123.79 39.5667C123.786 39.5734 123.782 39.5804 123.779 39.5874C123.667 39.7968 123.683 39.9978 123.768 40.1618C123.799 40.2064 123.83 40.2514 123.861 40.2963C123.872 40.3089 123.882 40.3225 123.894 40.3343C124.177 40.5672 124.461 41.1362 124.73 41.6893C124.912 42.0124 125.086 42.3402 125.248 42.6737C125.343 42.8136 125.511 42.9364 125.691 42.9722C125.655 43.2385 125.778 43.5138 125.979 43.6504C126.032 43.5439 126.096 43.4348 126.179 43.3224C127.087 42.0885 128.871 41.5561 130.214 42.12C130.482 42.0748 130.751 42.0374 131.023 42.016C131.91 41.9575 132.809 42.0272 133.685 42.2109C133.957 42.374 134.216 42.5577 134.459 42.7671C134.663 42.9447 134.854 43.1307 135.031 43.323C135.168 43.4259 135.303 43.535 135.436 43.6487C135.973 43.9376 136.367 44.4918 136.699 45.0434C136.961 45.4152 137.191 45.8102 137.39 46.2286C138.311 47.8053 139.374 49.7628 138.543 51.3131C138.632 51.4803 138.697 51.6654 138.733 51.8668C138.848 52.5062 138.612 52.995 138.303 53.4697C138.344 53.8007 138.366 54.1215 138.384 54.4037C138.482 55.988 138.119 58.1596 136.723 58.8063C136.701 58.8325 136.679 58.8585 136.656 58.8845C136.548 59.0599 136.384 59.2117 136.168 59.3224C136.114 59.3598 136.06 59.3953 136.005 59.4258C135.98 59.4471 135.952 59.4645 135.927 59.4847L136.013 59.3911C135.241 59.6993 134.495 59.7629 133.698 59.6693C133.206 59.8472 132.713 59.9801 132.296 60.0831C130.997 60.4041 129.321 60.6611 128.055 60.1137C127.686 59.9544 127.379 59.7432 127.149 59.4915C127.168 60.4722 127.197 61.4526 127.24 62.4333C127.326 64.9124 127.322 67.3895 127.303 69.8707C127.282 72.6627 127.204 75.4567 127.054 78.2465C126.984 79.6478 126.872 81.0469 126.722 82.4418C126.595 83.8008 126.447 85.1577 126.276 86.5103C125.873 89.2917 125.207 92.0942 124.396 94.7826C124.043 95.9492 123.656 97.1307 123.217 98.2846C123.031 98.8151 122.835 99.3393 122.621 99.8592C121.495 102.584 120.092 105.213 118.197 107.483C117.162 108.721 116.019 109.835 114.743 110.771C113.718 111.57 112.609 112.246 111.39 112.779C108.771 113.925 105.847 114.182 103.013 114.14C101.911 114.125 100.74 113.927 99.6501 113.745C98.8135 113.608 97.9663 113.424 97.1276 113.208C96.3839 113.035 95.6487 112.834 94.924 112.599C94.0515 112.369 93.2149 112.037 92.4184 111.608L91.0071 111.078C90.4177 110.856 89.8452 110.592 89.2895 110.289L87.7557 109.573C87.1198 109.266 86.5008 108.93 85.8966 108.56C85.8332 108.527 85.7614 108.47 85.7339 108.406C85.5776 108.32 85.4191 108.237 85.2628 108.148C85.2374 108.136 85.2564 108.062 85.2902 107.99C85.2628 107.933 85.267 107.869 85.3431 107.812C85.4001 107.768 85.4909 107.781 85.586 107.81C85.5776 107.804 85.5712 107.798 85.5649 107.791C85.4593 107.734 85.3557 107.679 85.2522 107.622C85.1466 107.565 85.1297 107.417 85.229 107.339C85.2564 107.318 85.2881 107.307 85.3198 107.305C85.3177 107.305 85.3156 107.303 85.3135 107.303C85.2945 107.29 85.3093 107.231 85.3367 107.166C85.2839 107.098 85.267 107.016 85.36 106.944C85.4973 106.836 85.8184 107.035 85.9346 107.1C86.0677 107.174 86.2029 107.244 86.336 107.316C86.3445 107.297 86.3614 107.28 86.3888 107.263C86.1924 107.159 85.998 107.054 85.8036 106.948C85.6832 106.884 85.5269 106.751 85.6853 106.627C85.8121 106.525 86.1395 106.698 86.2959 106.787C86.3149 106.772 86.336 106.766 86.3614 106.762C86.2938 106.724 86.2219 106.688 86.1543 106.648C85.9642 106.542 86.0931 106.212 86.2895 106.322L86.3593 106.365C86.5008 106.352 86.6994 106.468 86.7902 106.519C87.4515 106.935 88.1402 107.299 88.8543 107.612C89.336 107.84 89.8198 108.066 90.3057 108.286C90.7832 108.522 91.2755 108.727 91.7804 108.901C93.0501 109.395 94.3325 109.856 95.6276 110.283C97.4424 110.78 99.3205 111.179 101.205 111.336C101.45 111.355 101.695 111.371 101.94 111.38C102.477 111.376 103.013 111.374 103.548 111.369C104.59 111.262 105.631 111.156 106.671 111.05C107.034 110.999 107.389 110.936 107.74 110.862C107.923 110.818 108.107 110.771 108.289 110.718C108.352 110.71 108.416 110.697 108.479 110.687C108.925 110.568 109.362 110.427 109.799 110.262C110.074 110.15 110.347 110.031 110.617 109.907C111.511 109.49 112.39 108.941 113.218 108.311L116.33 105.213L117.278 103.919C118.504 102.167 119.473 100.214 120.278 98.2212L121.559 94.5311C121.692 94.0872 121.818 93.6434 121.939 93.1974C122.182 92.1999 122.425 91.2023 122.668 90.2068C122.748 89.8412 122.826 89.4777 122.902 89.1142C123.369 86.8506 123.627 84.5532 123.849 82.2558C124.254 78.0753 124.364 73.8821 124.394 69.6847C124.413 67.176 124.392 64.6673 124.341 62.1607C124.311 60.7066 124.29 59.2525 124.269 57.7984C124.242 56.2555 124.212 54.7106 124.172 53.1677C124.17 53.1339 124.182 53.1043 124.199 53.0789C124.195 52.8972 124.193 52.7154 124.191 52.5315C124.189 52.4111 124.235 52.3582 124.303 52.3477C124.29 51.2465 124.282 50.1475 124.28 49.0485C124.28 48.9766 124.313 48.9301 124.358 48.9026V48.6237C124.174 47.8586 123.925 47.1083 123.602 46.3939C123.492 46.1361 123.369 45.8846 123.234 45.6394C123.067 45.2716 122.849 44.9377 122.583 44.6313C122.361 44.2572 122.089 43.9253 121.772 43.6295C121.643 43.5365 121.512 43.4435 121.383 43.3505C121.275 43.2934 121.117 43.1941 120.978 43.0799C120.726 42.9257 120.477 42.7693 120.225 42.615C120.08 42.5389 120.175 42.3487 120.278 42.298C120.255 42.281 120.23 42.2684 120.202 42.2451C119.898 41.9577 119.581 41.6871 119.252 41.4335C119.192 41.4568 119.123 41.4483 119.07 41.4039C118.875 41.2222 118.677 41.0468 118.474 40.8777C118.02 40.5797 117.544 40.307 117.048 40.0661C116.252 39.6899 115.436 39.3665 114.599 39.0918C114.419 39.0324 114.237 38.9793 114.057 38.9259C113.799 38.9136 113.542 38.8996 113.285 38.8884C103.712 38.4683 94.1138 38.6448 84.5624 39.4156C82.2093 39.6056 79.8592 39.8319 77.5131 40.0942C75.4486 40.3252 72.974 40.3172 71.0762 41.2632C70.9959 41.3033 70.9194 41.3458 70.8448 41.3896C70.9929 42.3394 71.3802 43.2668 71.7176 44.1623C72.2379 45.5437 72.7042 46.9517 72.6579 48.4476C72.6254 49.4908 72.4012 50.4939 72.0784 51.4741C71.913 52.8718 71.4776 54.2217 71.0153 55.5479C68.7406 62.0732 67.5024 68.7539 67.6295 75.6805C67.6329 75.8661 67.5902 76.028 67.5167 76.1658C67.5583 76.4686 67.5997 76.7717 67.6488 77.0737C67.8385 78.241 66.2998 78.8216 65.7689 78.0479C65.7332 78.0831 65.6838 78.1075 65.6381 78.1113C65.5029 78.1239 65.2811 77.902 65.2177 77.8006C65.1353 77.6484 65.0487 77.5005 64.9557 77.3588C64.9431 77.3525 64.9325 77.3483 64.9219 77.3441C64.979 77.4624 65.0381 77.5829 65.0931 77.697C65.186 77.883 64.829 77.9739 64.7233 77.8027C64.6283 77.6526 64.5332 77.5089 64.4381 77.3715C64.3832 77.4117 64.3219 77.4223 64.2818 77.3567C63.9417 76.7945 63.5487 76.3127 63.1177 75.9026C62.4395 75.3489 61.698 75.0129 60.855 74.8163C60.1917 74.7212 59.5114 74.717 58.8543 74.7931C58.1001 74.8818 57.3057 75.0699 56.6233 75.4144C56.0677 75.797 55.51 76.1795 54.9522 76.5621C54.8149 76.7058 54.6839 76.8558 54.5614 77.0122C54.1747 77.5131 53.8642 78.0479 53.6086 78.6164C53.598 78.6523 53.5874 78.6882 53.5769 78.7221C53.4205 79.1997 53.3191 79.69 53.2747 80.1931C53.2684 80.8292 53.2642 81.4633 53.2578 82.0994C53.3424 82.9258 53.5536 83.7289 53.8769 84.4919C54.029 84.9421 54.2677 85.3437 54.5909 85.6987C54.7642 85.9988 54.9607 86.2715 55.1804 86.5251C55.6262 86.821 56.1121 87.0725 56.6297 87.2712C56.7564 87.305 56.8832 87.3388 57.0121 87.3642C57.6776 87.6199 58.3663 87.7573 59.0783 87.7763C59.9783 87.8376 60.8593 87.7594 61.7212 87.5417C62.2536 87.4466 62.7691 87.2923 63.2677 87.0788C63.7452 86.8379 64.1952 86.5484 64.6156 86.2102C64.6621 86.1806 64.7318 86.1975 64.8078 86.2356C64.9008 86.1679 64.9938 86.1024 65.0846 86.0284C65.1269 85.9989 65.1649 86.0348 65.1839 86.0728C65.1924 86.0665 65.2008 86.0601 65.2093 86.0538C65.3762 85.9397 65.8346 86.2969 65.6276 86.5082C65.7163 86.5632 65.805 86.6287 65.8853 86.6963C66.2529 86.7111 66.9945 87.3874 66.855 87.4931C66.648 87.6727 66.4304 87.8376 66.2085 87.994C66.405 88.1398 66.6628 88.366 66.5424 88.4569C66.3269 88.6619 66.0924 88.8394 65.8431 88.9916C65.674 89.1205 65.5008 89.2431 65.3191 89.3551C65.1226 89.4713 64.9219 89.5707 64.7149 89.6637C65.0762 90.3632 65.4205 91.0691 65.7416 91.7877C65.955 92.2971 66.2022 92.7895 66.4874 93.263C66.8508 93.9837 67.286 94.66 67.7952 95.2898C68.2093 95.9873 68.6952 96.6277 69.2508 97.2131C69.9374 97.9951 70.6747 98.7306 71.4585 99.4111C71.7712 99.6331 72.0902 99.8486 72.4219 100.047C73.2691 100.686 74.1712 101.233 75.1283 101.689C75.2402 101.751 75.329 101.886 75.198 101.992C75.1938 101.994 75.1895 101.994 75.1853 101.998C75.498 102.176 75.8128 102.351 76.1297 102.524C76.2543 102.592 76.51 102.723 76.3198 102.877C76.1973 102.979 75.8191 102.797 75.5931 102.679C75.6247 102.696 75.6586 102.715 75.6924 102.734C75.7621 102.772 76.1635 102.975 75.9163 103.103C75.7916 103.125 75.6733 103.103 75.5593 103.042C75.4409 102.998 75.3226 102.949 75.2064 102.898C75.2107 102.936 75.1895 102.972 75.1283 103.002C75.0797 103.01 75.0332 103.01 74.9867 103.006C75.2445 103.152 75.5022 103.296 75.7621 103.437C75.8381 103.478 76.1973 103.676 75.9607 103.799C75.8445 103.822 75.7325 103.803 75.6247 103.744C75.4283 103.67 75.2339 103.583 75.0459 103.488C75.0015 103.463 74.9571 103.439 74.9128 103.414C74.879 103.414 74.8452 103.41 74.8114 103.404C75.0184 103.516 75.2276 103.623 75.4388 103.729C75.5635 103.797 75.7726 103.934 75.5931 104.074C75.4684 104.169 75.1325 103.997 74.9339 103.885C74.9212 103.9 74.9064 103.917 74.8853 103.934C74.7374 104.046 74.3571 103.799 74.2367 103.733C73.1888 103.171 72.1769 102.59 71.2029 101.924C70.6071 101.542 70.0262 101.14 69.4578 100.702C68.3698 99.8613 67.3811 98.8828 66.4747 97.8514C65.8557 97.1455 65.5198 96.7481 64.9198 95.8922C63.9564 94.5142 63.2297 93.077 62.5304 91.5531C62.5198 91.5299 62.5409 91.4707 62.5726 91.4115C62.429 91.0586 62.2895 90.7014 62.1501 90.3315C61.7867 90.3801 61.4212 90.414 61.06 90.4351C60.2086 90.4837 59.3825 90.4076 58.5818 90.2322C57.6121 90.1075 56.6529 89.8327 55.8036 89.4016C55.2945 89.1459 54.8043 88.8732 54.3395 88.5689C53.9233 88.347 53.5219 88.0933 53.1374 87.7974C51.5001 86.5462 50.6107 84.6039 50.3931 82.5877C50.2262 81.7 50.1902 80.787 50.2895 79.9056C50.3614 79.2652 50.505 78.6312 50.7142 78.0204C51.1008 76.6656 51.8212 75.4123 52.8649 74.4633C53.0402 74.2837 53.224 74.1125 53.4205 73.9519C54.0015 73.4763 54.6607 73.0938 55.3621 72.8148C55.4973 72.7493 55.6346 72.688 55.7719 72.6309L55.605 72.2463C55.5459 72.2632 55.3409 72.2294 55.3156 72.1575C55.248 71.9736 55.1846 71.7855 55.1191 71.6017C55.0811 71.6249 55.0325 71.6376 54.9797 71.6397V71.8532C54.9818 71.9145 54.8656 72.2949 54.8022 72.0962C54.7367 71.9145 54.6776 71.7285 54.6142 71.5446C54.5614 71.5108 54.5212 71.4706 54.5064 71.4241C54.5001 71.4051 54.4938 71.3861 54.4853 71.3671C54.4811 71.365 54.4747 71.365 54.4705 71.3628V71.4284C54.4726 71.4685 54.367 71.7729 54.348 71.7137C53.9825 70.7077 53.6846 69.6805 53.4522 68.6364C53.2938 68.0616 53.1691 67.4803 53.074 66.8907C52.9705 66.3602 52.8797 65.8276 52.8015 65.2907C52.7952 65.2464 52.7888 65.202 52.7825 65.1576L52.7762 65.128C52.7698 65.0709 52.7635 65.0118 52.755 64.9547C52.6705 64.3481 52.6008 63.7394 52.548 63.1265C52.436 61.8669 52.3917 60.6009 52.4043 59.337C52.3769 59.3476 52.3515 59.3624 52.324 59.3751C51.7752 59.6088 51.1952 59.7999 50.6052 59.952C49.59 61.4197 47.9694 62.4128 46.0272 62.5172C45.3695 62.5527 44.68 62.4726 44.0415 62.2868C43.9752 62.302 43.9067 62.3143 43.8357 62.3236C43.3154 62.3917 42.9535 62.1797 42.4669 62.115C41.688 62.0119 41.0276 61.9611 40.5235 61.5086C40.3678 61.5122 40.219 61.4896 40.0777 61.4473C38.741 61.768 37.3207 61.0612 36.8506 59.5801C36.0488 59.11 35.41 58.4128 34.9805 57.6037C34.1531 56.5427 33.4917 55.2419 33.0814 53.8751C33.075 53.8622 33.0681 53.8497 33.0619 53.8364C32.8538 53.385 32.7547 52.9008 32.7463 52.4151C32.5249 51.0316 32.5832 49.6464 33.0043 48.4288C32.9865 47.7688 33.1416 47.0808 33.4255 46.4567C33.7697 45.6998 34.2945 44.8297 34.9754 44.325C34.9771 43.5494 35.3102 42.6955 35.7469 42.1168C36.6184 40.9609 37.8822 40.3499 39.25 40.2616C39.9455 38.478 42.0528 38.0614 43.8706 38.6551C44.6257 37.8833 45.7317 37.5147 46.8355 37.6459C47.7689 37.7569 48.5667 38.2035 49.2271 38.8189C49.4012 38.8686 49.5746 38.9204 49.7478 38.9743C50.3261 38.7204 51.0007 38.6629 51.6178 38.8221C52.6874 39.0979 53.3852 39.9086 53.868 40.8386C54.022 40.9447 54.1724 41.0542 54.3193 41.1685C54.4805 41.2408 54.6269 41.3374 54.7597 41.4511C54.9528 41.554 55.1168 41.7233 55.2167 41.9689C55.4893 42.25 55.7428 42.5473 55.9671 42.8663C56.1351 42.4776 56.3083 42.0917 56.4873 41.7085C56.7786 41.7962 57.1308 41.6827 57.2774 41.2934C58.207 38.8259 59.899 34.3049 61.4935 32.2216C59.6326 33.4891 57.3607 34.1572 55.1039 34.09C55.0074 34.087 54.91 34.083 54.8117 34.0777C53.5986 34.2869 52.3663 34.3064 51.235 34.0794C50.4731 33.8027 49.7307 33.473 49.0114 33.1C48.8364 33.0091 48.663 32.9136 48.4902 32.8172C48.4147 32.7536 48.3448 32.6826 48.2728 32.6145C48.124 32.6253 47.9683 32.6137 47.8027 32.5697C47.1801 32.4051 46.604 31.9906 46.2427 31.458C46.1755 31.3589 46.1214 31.2568 46.0733 31.1539C45.6814 30.7705 45.3419 30.3362 45.0924 29.8283C44.7987 29.2344 44.6191 28.5665 44.6001 27.8987C44.4776 27.2435 44.486 26.5693 44.7142 25.9437C44.7395 25.876 44.7691 25.8105 44.7966 25.7429C44.8093 25.7006 44.8177 25.6562 44.8325 25.614C44.8993 25.391 44.9842 25.1923 45.0873 25.0042C45.1255 24.8108 45.1881 24.6191 45.2764 24.4325C45.2863 24.3423 45.2986 24.252 45.3131 24.1622C44.6417 22.8951 44.8796 21.2382 45.8846 20.2083C45.7456 19.5425 45.8871 18.8366 46.2921 18.2459C46.5896 17.8118 47.0031 17.4692 47.4714 17.2314C47.5202 17.2067 47.6495 17.1642 47.8042 17.1154C47.9774 16.9621 48.1602 16.8171 48.3602 16.6895C48.4101 15.3912 49.7658 14.6688 50.8674 14.029C51.5819 13.6141 51.8941 12.8277 52.63 12.4299C53.4349 11.9952 54.4648 11.9692 55.3545 11.862C57.4517 11.6093 59.685 11.414 61.7928 11.6424C62.9631 11.7692 63.9321 12.3346 64.3329 13.2607C65.3396 13.3797 66.2369 14.1064 66.9467 14.8537C67.8328 15.7864 68.5872 16.7793 68.8473 18.0049C69.0205 18.0986 69.1779 18.2131 69.3201 18.3425C69.3148 19.2043 69.2024 20.0677 68.9645 20.8812C69.0345 21.3675 68.8881 21.8318 68.6405 22.2529C68.6783 22.6515 68.6512 23.0439 68.5678 23.4352C69.0495 24.2901 68.5986 25.582 67.9238 26.4298C67.9221 26.5891 67.9205 26.7485 67.9188 26.9078C67.9589 26.8869 67.998 26.8622 68.0345 26.8311C71.0962 24.2248 74.2435 24.5965 77.9628 23.1052C81.3174 22.4574 84.7412 22.0451 88.1772 21.9079C88.1318 21.9012 88.0864 21.8963 88.0412 21.8889C86.3096 21.6053 84.6465 20.8928 83.2162 19.8692C82.8376 19.7733 82.4787 19.6023 82.1574 19.3164C81.8451 19.0386 81.629 18.7182 81.5047 18.3746C81.4481 18.3139 81.3921 18.2528 81.337 18.1907C80.2633 17.9269 79.4457 16.9976 79.5826 15.776C78.9028 14.971 78.6526 13.977 78.8827 12.942C78.5028 12.3002 78.4697 11.4909 78.7532 10.8131C78.1562 10.0877 78.1097 9.05804 78.5778 8.23737C78.1505 7.62974 78.056 6.8245 78.5833 6.10485C78.8322 5.765 79.177 5.55069 79.5526 5.44712C79.6587 5.05549 79.8744 4.69176 80.2133 4.41087C80.3876 4.26652 80.5701 4.15937 80.7566 4.07948C80.8268 3.67516 81.0552 3.29177 81.4946 2.99018C81.694 2.85343 81.8981 2.76509 82.1009 2.71606C82.293 2.24052 82.6281 1.82352 83.0994 1.55278C83.6686 1.22625 84.3305 1.18292 84.9336 1.35412ZM57.8169 78.2212C58.2585 78.2148 58.6831 78.2191 59.1057 78.2635C59.1226 78.2508 59.1395 78.2444 59.1543 78.2465C59.224 78.2635 59.2874 78.2782 59.355 78.2952C59.5895 78.329 59.824 78.3776 60.0627 78.4473C60.6268 78.6143 61.1909 78.8785 61.6789 79.2061C62.1395 79.5146 62.5979 79.8359 62.9993 80.2206C63.1409 80.341 63.274 80.4721 63.4007 80.6073C63.6057 80.7764 63.8043 80.9497 63.9944 81.1209C64.2268 81.3344 64.4529 81.5542 64.6683 81.7824C65.0064 82.1734 65.2705 82.6088 65.4606 83.0886C65.5367 83.2429 65.4437 83.3359 65.2874 83.3084C65.2176 83.2978 65.1226 83.2471 65.0254 83.1795C65.0402 83.2154 65.0571 83.2471 65.0719 83.283C65.1543 83.4458 65.0845 83.562 64.8965 83.5007C64.886 83.4944 64.8754 83.488 64.8669 83.4817C64.9641 83.655 65.0529 83.8325 65.1289 84.0185C65.2113 84.1834 65.1374 84.2975 64.9514 84.2341C64.8543 84.1791 64.7613 84.1157 64.6726 84.046C64.7127 84.1348 64.755 84.2214 64.7909 84.3123C64.8754 84.4793 64.7782 84.5659 64.6134 84.5279C64.4719 84.4497 64.3409 84.3567 64.2183 84.2489C64.1993 84.2341 64.1824 84.2172 64.1655 84.2024C64.2205 84.3398 64.1169 84.4243 63.9796 84.3968C63.7852 84.3588 63.4198 84.0312 63.331 83.8579C63.3247 83.8473 63.3205 83.8368 63.3141 83.8262C63.2106 83.7564 63.0986 83.6592 63.0141 83.5662C62.9465 83.6635 62.8155 83.7353 62.7564 83.617C62.5789 83.133 62.3022 82.7187 61.924 82.37C61.7085 82.0551 61.4465 81.7867 61.1402 81.5647C60.9754 81.4253 60.8043 81.2921 60.6289 81.1653C60.3183 81.0237 59.9951 80.9159 59.6571 80.844C59.5895 80.8229 59.5198 80.8102 59.4522 80.7912C59.3022 80.7637 59.1543 80.7362 59.0043 80.7151C58.3937 80.6306 57.781 80.6158 57.1683 80.6707C57.0585 80.675 56.9529 80.5904 56.9064 80.4932C56.7691 80.4995 56.6338 80.5059 56.4965 80.5186C56.2705 80.527 56.3191 80.2079 56.4902 80.1762C56.7057 80.136 56.9212 80.1064 57.1324 80.0811C57.1282 80.062 57.1261 80.0409 57.1303 80.024C56.7437 80.005 56.3592 80.0134 55.9705 80.0536C55.8014 80.062 56.0021 79.7492 56.0951 79.7323C56.1374 79.7239 56.1796 79.7197 56.224 79.7112C56.2198 79.7049 56.2176 79.7006 56.2155 79.6943H56.205C55.9726 79.7049 55.8141 79.335 56.093 79.2843C56.1627 79.2716 56.2303 79.2631 56.2979 79.2505C56.2852 79.2145 56.2831 79.1828 56.2958 79.1532C56.1754 79.1511 56.0571 79.1511 55.9367 79.1511C56.0022 79.1469 56.0507 78.8637 56.1289 78.8531C56.1902 78.8447 56.2536 78.8362 56.3148 78.8278C56.3191 78.7496 56.4374 78.5678 56.4881 78.5572C56.8895 78.4896 57.2824 78.4431 57.6712 78.4283C57.7092 78.3395 57.7641 78.2212 57.8169 78.2212Z" fill="black"/>
<path fill-rule="evenodd" clip-rule="evenodd" d="M109.319 96.1118C107.762 96.5628 106.092 96.6031 104.505 96.1374C103.066 95.7149 101.589 94.7853 100.53 93.5552C99.5892 92.4624 98.9799 91.1344 99.0038 89.7168C99.0066 89.5549 99.0644 89.4198 99.1534 89.3149C99.2493 89.202 99.3831 89.1244 99.5265 89.0908C99.674 89.0562 99.8298 89.0684 99.9626 89.1287C100.083 89.1833 100.186 89.2761 100.25 89.4117C100.413 89.6255 100.575 89.8362 100.738 90.0411C102.046 91.6576 103.314 92.8656 105.281 93.2989C106.349 93.534 107.415 93.4298 108.394 93.071C109.441 92.687 110.388 92.0118 111.129 91.1478C111.465 90.7573 111.86 90.5979 112.248 90.5952C112.686 90.5922 113.12 90.7961 113.446 91.1219C113.767 91.4422 113.982 91.8775 114.002 92.3329C114.019 92.7325 113.888 93.1499 113.542 93.5223C112.4 94.7491 110.92 95.6479 109.319 96.1118ZM109.271 75.8662C110.866 76.8363 113.297 79.0984 111.58 81.5034C109.56 83.624 106.652 81.1926 105.218 80.093C103.889 79.2408 102.396 81.4326 103.629 82.4277C113.986 90.0987 118.189 76.1199 110.077 74.7256C109.184 74.572 108.853 75.5661 109.271 75.8662ZM94.3467 71.5976C93.8339 71.2695 93.2308 71.1569 92.5623 71.4612C92.0399 71.6988 91.1237 72.4911 90.486 73.5325C90.0498 74.245 89.7405 75.0809 89.8049 75.9516C89.8198 76.1538 89.7451 76.3029 89.6273 76.4131C89.5343 76.5001 89.3999 76.5641 89.2421 76.5841C89.108 76.6011 88.958 76.5858 88.8361 76.5477C88.6041 76.4753 88.4813 76.3247 88.435 76.2018C87.9886 75.0157 88.1809 73.692 88.6812 72.4979C89.3565 70.8863 90.5828 69.5364 91.3863 69.1012C92.7611 68.3562 94.383 68.3219 95.7599 69.0809C96.9319 69.7269 97.6647 70.7698 98.3936 71.8329C98.5485 72.0589 98.7023 72.2832 98.8612 72.5036C99.1797 72.9452 99.2114 73.3832 99.0881 73.7587C98.9514 74.1748 98.603 74.5259 98.1673 74.7097C97.7646 74.8795 97.2972 74.9034 96.8836 74.7289C96.5342 74.5815 96.2136 74.2941 96.0107 73.8065C95.669 72.9853 95.0997 72.0793 94.3467 71.5976ZM120.389 73.4245C120.038 73.6076 119.763 73.6628 119.373 73.546C119.158 73.4813 118.945 73.3572 118.778 73.1905C118.613 73.0252 118.494 72.8197 118.448 72.5917C118.334 72.029 118.026 71.5023 117.587 71.1589C117.212 70.8655 116.739 70.7099 116.215 70.7977C115.648 70.8922 115.109 71.2556 114.737 71.6839C114.613 71.8273 114.516 71.99 114.418 72.1517C114.235 72.4541 114.057 72.7352 113.804 72.9572C113.708 73.0417 113.564 73.1002 113.425 73.1002C113.368 73.1002 113.31 73.091 113.255 73.0739C112.692 72.508 112.583 72.0786 112.601 71.6528C112.62 71.2063 112.796 70.7542 113.081 70.3323C113.748 69.3428 115.015 68.5315 115.869 68.3477C117.04 68.096 118.202 68.3981 119.134 69.0521C120.093 69.7251 120.804 70.7699 121.025 71.9474C121.079 72.2309 121.056 72.537 120.948 72.8024C120.843 73.0618 120.659 73.2839 120.389 73.4245ZM96.9282 61.0475C96.2258 61.7322 95.3944 61.8382 94.5533 61.9325C94.0859 61.9855 93.7128 62.0281 93.3457 62.111C92.3366 62.3388 91.3392 62.682 90.4292 63.1763C89.4779 63.693 88.4412 64.3162 87.6954 65.1145C87.5181 65.3044 87.3509 65.5037 87.1835 65.7035C87.0308 65.8857 86.8838 66.061 86.7288 66.2301C86.5508 66.4243 86.3818 66.6279 86.2137 66.8309C86.1097 67.0022 86.0892 67.0444 86.0683 67.0882C86.0368 67.1541 86.0001 67.2279 85.9583 67.307C85.901 67.4154 85.8338 67.534 85.7635 67.6416C85.6465 67.8382 85.5837 67.8923 85.5295 67.9165C85.4395 67.9566 85.3541 67.9764 85.2713 67.9657C85.1937 67.9557 85.1205 67.9184 85.0483 67.8573C84.6876 67.5525 84.5813 67.0522 84.5922 66.5212C84.6087 65.7153 84.9058 64.8232 85.1797 64.2747C85.8165 63.0003 86.6998 61.6755 87.7618 60.7244C88.9736 59.6387 90.2994 58.8168 91.8222 58.2504C92.7685 57.8983 93.8642 57.5751 94.8952 57.6159C95.6373 57.6453 96.3458 57.866 96.9309 58.4171C97.2901 58.7554 97.4626 59.2366 97.4626 59.7175C97.4626 60.208 97.2835 60.7013 96.9282 61.0475ZM121.817 67.3172C121.773 67.3904 121.711 67.4409 121.642 67.4712C121.57 67.503 121.489 67.5122 121.412 67.4991C121.335 67.4862 121.262 67.4513 121.204 67.398C121.149 67.3469 121.106 67.2791 121.087 67.1961C120.621 65.1469 119.715 63.6223 117.782 62.6392C116.832 62.1555 115.738 61.8482 114.703 61.6032C114.403 61.532 114.085 61.4859 113.765 61.4392C112.762 61.2926 111.751 61.1248 111.097 60.3137C110.703 59.8251 110.538 59.2003 110.632 58.6288C110.72 58.0908 111.034 57.5974 111.605 57.3018C113.028 56.5661 114.795 57.288 116.231 57.903C116.338 57.9486 116.443 57.9934 116.545 58.0366C117.95 58.6297 119.231 59.4127 120.284 60.5323C121.119 61.4206 121.893 62.7338 122.205 64.0847C122.465 65.2085 122.404 66.3559 121.817 67.3172Z" fill="black"/>
<path fill-rule="evenodd" clip-rule="evenodd" d="M127.084 77.758C125.662 79.6697 123.025 80.2786 120.593 80.0683C115.347 79.5632 113.696 73.6029 113.524 68.9703C117.041 69.9603 113.226 62.9489 125.251 62.1779C129.49 61.8246 128.322 64.3857 130.195 66.257C130.156 70.1843 129.503 74.4517 127.084 77.758ZM102.098 73.2453C99.0004 87.7551 82.0403 84.3038 80.2587 71.2242C81.9038 70.0626 81.4705 67.1943 83.5143 66.1551C86.7535 64.0847 90.8026 64.1733 94.481 64.2219C99.1828 64.5451 100.523 66.4935 102.938 68.6193C102.822 70.0391 102.487 71.7219 102.098 73.2453ZM133.803 59.7749C133.629 59.7459 133.455 59.7187 133.281 59.6931C133.145 59.616 132.986 59.5566 132.8 59.5208C132.376 59.4133 131.956 59.3408 131.536 59.3017C125.508 57.9446 111.563 59.8715 110.987 65.0174C109.068 65.6585 107.407 65.0844 105.182 65.1415C103.488 58.0602 74.2103 59.0597 72.8022 63.329C72.7969 63.3275 72.7916 63.3262 72.7861 63.3245C71.4332 62.9056 69.4386 63.0066 67.89 62.9403C64.5835 62.871 61.2731 63.1658 58.038 63.8635C51.9799 64.8266 43.7119 65.9541 47.9252 73.5222C47.9261 73.5234 47.9267 73.5249 47.9277 73.5262L47.9284 73.5255C48.6545 74.2701 49.8868 73.6705 49.9327 72.6626C48.5161 69.0773 51.7156 68.6467 54.1773 67.6164C60.3025 65.415 66.5387 65.1098 72.8738 65.7908C73.3504 66.3521 74.0736 66.8416 74.838 67.0977C79.0737 67.8011 76.8414 70.9443 79.5188 71.4015C79.027 82.3583 92.3244 88.3391 100.029 81.1365C103.105 78.1277 103.839 73.6705 104.552 69.653C104.929 69.5682 105.169 69.3619 105.309 69.0889C106.216 68.183 106.786 67.3465 108.579 67.0977C110.373 66.8492 111.753 67.3482 111.94 67.501C111.987 67.5959 112.038 67.691 112.096 67.7861C112.178 67.9279 112.29 68.041 112.417 68.13C110.645 79.0407 119.112 85.9409 127.66 80.282C131.374 76.7869 132.159 71.4359 132.314 66.6598C132.818 66.3559 133.136 65.7669 132.962 65.0263C132.722 64.0055 133.285 63.1216 134.182 62.6778C135.348 62.1014 135.142 59.9966 133.803 59.7749Z" fill="black"/>
</svg>
