<svg width="169" height="249" viewBox="0 0 169 249" fill="none" xmlns="http://www.w3.org/2000/svg">
<path fill-rule="evenodd" clip-rule="evenodd" d="M16.1623 244.363C17.2763 246.057 19.4675 245.796 20.4083 244.485C31.1208 246.982 42.1032 245.998 52.9647 245.385C83.5716 244.14 114.351 248.045 144.834 243.959C148.068 243.313 151.832 243.622 154.478 241.378C158.71 236.417 157.798 228.885 157.124 222.842C151.72 188.78 144.038 154.406 140.206 120.125C139.992 116.859 141.337 112.802 142.543 109.732C142.841 109.161 144.723 108.602 145.7 107.943C148.698 105.79 148.212 101.932 145.613 99.6683C137.198 93.7344 125.484 95.8079 116.557 97.9972C114.847 91.5694 112.924 87.3419 109.666 86.9232C103.467 86.1264 88.4282 83.6913 83.7958 86.9232C81.5797 88.4694 80.1573 93.9174 78.562 96.5714C66.9282 96.3647 43.3163 80.7937 38.462 98.3279C34.518 98.6004 30.6117 102.045 31.3661 106.179C26.2511 110.7 30.2855 117.48 30.2147 123.108C29.5423 135.049 23.0834 145.728 20.3963 157.263C14.2541 179.636 7.30212 220.331 14.9202 242.169C14.7563 242.083 14.3982 242.212 14.6301 242.394C15.4928 242.637 15.6049 243.724 16.1623 244.363Z" fill="white"/>
<path fill-rule="evenodd" clip-rule="evenodd" d="M149.916 238.674C148.487 227.199 147.494 213.346 147.482 201.775C147.481 200.686 149.172 200.688 149.173 201.775C149.184 213.346 150.178 227.199 151.606 238.674C151.741 239.753 150.049 239.739 149.916 238.674ZM139.332 167.524C137.124 168.875 134.225 167.938 132.04 167.043C131.045 166.636 131.483 165.001 132.489 165.413C134.152 166.094 136.582 167.096 138.337 166.146C140.089 165.199 140.168 162.592 140.181 160.872C140.189 159.782 141.879 159.783 141.871 160.872C141.853 163.212 141.541 166.172 139.332 167.524ZM135.245 220.036C133.018 218.893 131.117 217.332 129.588 215.35C128.923 214.488 130.392 213.647 131.047 214.496C132.393 216.241 134.147 217.575 136.098 218.576C137.068 219.073 136.211 220.531 135.245 220.036ZM124.539 161.026C120.717 176.347 118.152 191.942 116.895 207.684C116.64 210.879 116.46 214.071 116.359 217.264C116.257 218.097 116.16 218.932 116.069 219.767C115.725 222.924 115.461 226.133 115.484 229.311C115.495 230.738 115.539 232.158 115.636 233.58C115.467 233.105 115.311 232.627 115.159 232.152C114.848 231.177 114.643 230.167 114.326 229.199C114.064 228.398 113.726 227.631 113.412 226.855V226.853C113.507 223.677 113.291 220.47 113.181 217.309C113.04 213.213 112.864 209.121 112.773 205.023C112.592 196.827 112.683 188.624 112.978 180.432C113.572 163.926 115.072 147.498 116.585 131.059C117.005 126.487 117.457 121.918 117.77 117.338C118.085 112.709 118.212 108.072 118.247 103.431C118.25 103.097 117.743 103.009 117.65 103.332C117.567 102.231 117.421 101.132 117.178 100.068C120.823 102.393 124.666 104.403 128.433 106.517C130.416 107.631 132.392 108.763 134.437 109.761C135.561 110.31 136.695 110.816 137.853 111.293C139.053 111.788 140.2 112.468 141.521 112.124C141.635 112.094 141.743 112.052 141.846 111.997C141.696 112.282 141.546 112.566 141.402 112.853C140.904 113.844 140.428 114.84 139.968 115.844C139.845 115.934 139.738 116.059 139.653 116.222C139.429 116.659 139.212 117.101 139 117.549C138.958 117.509 138.916 117.469 138.873 117.429C138.696 117.262 138.451 117.513 138.607 117.695C138.679 117.777 138.749 117.858 138.819 117.94C137.441 120.905 136.321 124.023 135.168 127.067C133.75 130.807 132.407 134.576 131.141 138.369C128.646 145.832 126.445 153.392 124.539 161.026ZM69.8988 216.627C62.855 220.401 56.2727 224.911 49.9419 229.775C49.0788 230.438 48.238 228.968 49.0888 228.315C55.4196 223.451 62.0021 218.941 69.046 215.167C70.0055 214.653 70.8582 216.113 69.8988 216.627ZM46.108 172.43C45.7419 172.403 45.3861 172.19 45.2931 171.809C44.7225 169.472 44.2757 166.926 44.8064 164.543C45.043 163.479 46.6721 163.932 46.4361 164.992C46.0176 166.872 46.3501 168.904 46.7847 170.778C52.9281 171.047 58.9892 168.842 64.8669 167.361C65.9238 167.094 66.3702 168.726 65.3162 168.991C59.0813 170.562 52.6321 172.913 46.108 172.43ZM168.411 234.77C168.417 234.756 168.423 234.739 168.428 234.724C168.789 233.629 168.797 232.357 168.838 231.209C168.907 229.168 168.833 227.122 168.65 225.086C168.261 220.802 167.424 216.588 166.425 212.409C164.445 204.133 161.648 196.081 160.129 187.692C157.148 171.226 157.856 154.081 152.006 138.198C149.574 131.596 146.101 125.249 141.381 120.003C141.726 118.955 142.062 117.904 142.389 116.85C142.962 115.015 143.547 113.121 143.9 111.232C143.908 111.181 143.919 111.128 143.925 111.076C145.934 110.209 147.762 108.575 148.074 106.403C148.209 105.464 148.053 104.424 147.647 103.518C148.476 102.753 149.008 101.759 148.881 100.428C148.645 97.9211 145.719 97.2763 143.682 96.7862C141.366 96.2303 138.964 96.076 136.596 96.3381C135.4 96.4691 134.217 96.6889 133.062 97.0186C132.058 97.304 130.966 97.5977 130.161 98.2867C130.066 98.3671 130.144 98.5235 130.258 98.5235C131.887 98.5173 133.509 97.919 135.155 97.8406C136.879 97.7605 138.599 97.9021 140.289 98.2572C141.941 98.6038 143.589 99.111 145.091 99.8951C145.514 100.117 146.133 100.267 145.636 100.715C145.273 101.043 144.559 101.07 144.092 101.119C143.059 101.227 142.167 101.831 142.036 102.934C141.92 103.909 142.501 105.012 143.536 105.232C143.593 105.245 143.646 105.259 143.693 105.278C143.72 105.331 143.762 105.375 143.758 105.304C143.758 105.304 143.76 105.301 143.76 105.304C143.785 105.458 143.794 105.519 143.794 105.53C143.788 105.517 143.777 105.464 143.769 105.422C143.775 105.46 143.788 105.521 143.804 105.612C143.781 105.513 143.8 105.756 143.781 105.794C143.232 106.808 141.607 107.094 140.661 107.531C140.477 107.616 140.319 107.715 140.183 107.827C139.959 107.749 139.731 107.671 139.501 107.584C138.366 107.159 137.234 106.747 136.085 106.364C133.866 105.623 131.621 104.961 129.402 104.217C125.202 102.81 121.142 101.032 117.02 99.4217C116.889 98.9356 116.737 98.4601 116.557 97.9972C116.521 97.9002 116.348 97.8683 116.329 97.9972C116.266 98.4072 116.215 98.8193 116.173 99.2336C116.156 99.2716 116.152 99.3139 116.16 99.3541C115.921 101.763 115.985 104.23 115.862 106.637C115.71 109.638 115.285 112.618 115.165 115.622V115.677C114.721 118.24 114.32 120.812 113.957 123.393C113.549 123.266 113.082 123.292 112.604 123.547C109.228 125.35 105.434 126.354 101.616 126.578C99.6939 126.69 97.7904 126.627 95.8784 126.405C94.6214 126.261 93.3833 125.999 92.1432 125.75C92.796 123.013 93.4974 120.288 94.2897 117.592C94.9425 115.374 95.6693 113.168 96.5671 111.035C97.4735 108.882 98.6017 106.825 99.6517 104.737C100.135 103.771 99.565 102.294 98.308 102.395C97.9362 102.425 97.5643 102.448 97.1904 102.465C93.5524 102.639 89.7686 102.233 86.177 101.871C82.089 101.457 77.946 101.028 73.8939 100.354C73.5939 100.305 73.4714 100.713 73.7672 100.812C75.6897 101.459 77.589 102.19 79.5601 102.674C81.5883 103.175 83.6291 103.632 85.6869 103.989C87.658 104.329 89.6376 104.615 91.6235 104.856C92.9186 105.014 94.2284 105.094 95.5319 105.2C93.7763 108.007 92.5657 111.173 91.5115 114.29C90.1573 118.293 89.1622 122.412 88.1883 126.523C86.1052 135.334 84.3876 144.234 83.0439 153.189C82.0805 159.61 81.301 166.056 80.7157 172.519C80.5425 170.556 80.3312 168.599 80.0925 166.644C79.2939 160.153 78.1277 153.705 76.5686 147.354C76.708 147.109 76.7735 146.815 76.727 146.53C76.446 144.784 75.7066 143.264 75.058 141.645C74.4136 139.384 73.7186 137.137 72.9707 134.907C72.1214 131.87 71.1686 128.88 69.9495 125.959C69.0179 123.733 67.9552 121.565 66.7721 119.462C65.3587 116.522 63.8059 113.646 62.101 110.896C62.0122 110.64 61.8686 110.401 61.6636 110.201C61.3531 109.71 61.0383 109.226 60.7171 108.746C60.508 108.434 59.908 108.624 60.0664 109.021C60.1404 109.207 60.2143 109.393 60.2904 109.577C53.346 107.84 46.5369 110.496 39.9221 112.458C38.2531 112.954 36.5672 113.403 34.8559 113.726C33.5101 113.98 31.9425 114.288 30.601 114.009C29.7031 113.823 29.3059 113.415 29.7432 112.456C30.1953 111.463 31.4291 110.809 32.5002 110.37C32.9038 110.283 33.301 110.129 33.6833 109.896C34.5749 109.355 34.9657 108.227 34.5453 107.265C34.1629 106.396 33.0474 105.648 32.0608 106.045C31.9193 106.102 31.7798 106.157 31.6404 106.212C31.6256 106.191 31.6087 106.162 31.5939 106.119C31.4524 105.733 31.3911 106.196 31.4524 105.642C31.5538 104.737 32.5108 103.915 33.1657 103.397C34.7946 102.106 37.1481 101.151 39.2502 101.639C39.4087 101.675 39.5672 101.719 39.7235 101.774C41.889 102.524 42.9432 99.4048 41.2129 98.2424C41.1073 98.1726 40.9742 98.0838 40.8284 97.9803C40.108 97.4794 39.0538 96.6361 39.3411 95.8754C39.696 94.9305 41.7897 94.3873 42.5819 94.0661C45.4467 92.9037 48.5418 92.2442 51.6305 92.109C54.7383 91.9737 57.8862 92.3161 60.884 93.1549C62.3545 93.5652 63.865 94.1887 65.2552 94.8187C66.5038 95.3828 69.2207 96.1289 69.3939 97.7098C69.4319 98.0587 69.9284 98.1768 70.0362 97.7964C70.8876 94.7614 67.5833 92.8022 65.4031 91.5489C63.9728 90.7244 62.3502 90.211 60.7805 89.7059C59.2763 89.2198 57.7404 88.8626 56.1728 88.6468C52.8073 88.1863 49.4017 88.2455 46.0636 88.8922C43.0235 89.4821 39.6411 90.4879 37.1841 92.445C35.6756 93.6455 34.9932 95.5561 35.5995 97.4202C35.6207 97.4815 35.6418 97.5449 35.6629 97.6062C32.9481 98.0923 30.3791 99.6478 28.6615 101.816C27.2502 103.598 26.5108 106.077 27.7742 108.151C27.7214 108.189 27.6686 108.229 27.6179 108.271C26.4136 109.235 25.5179 110.634 25.2517 112.164C24.7298 115.182 26.5531 117.293 29.1031 118.101C28.4714 118.718 27.865 119.373 27.2714 120.028C25.9425 121.497 24.6728 123.097 23.5531 124.729C21.284 128.034 19.3446 131.634 17.6481 135.26C14.1601 142.708 11.9608 150.725 10.7946 158.853C10.2073 162.949 9.81433 167.066 9.66433 171.2C9.49109 175.914 9.66644 180.629 9.5756 185.344C9.48687 189.875 8.98616 194.297 7.97419 198.714C7.00447 202.939 5.71151 207.079 4.54109 211.249C3.22067 215.945 1.76715 220.621 1.06997 225.463C0.717149 227.927 0.463628 230.398 0.660107 232.889C0.858698 235.428 1.77982 237.598 2.62912 239.959C2.84461 240.562 3.50166 240.804 4.02771 240.676C4.14602 241.806 4.57278 242.91 5.2087 243.865C6.5587 245.89 8.63757 247.181 11.0186 247.65C13.7017 248.176 16.4671 248.052 19.184 247.954C22.1312 247.849 25.0805 247.754 28.0277 247.631C31.1133 247.504 34.1986 247.373 37.2842 247.241C37.1821 244.077 37.0605 240.915 36.9229 237.752C36.1791 220.658 35.0076 203.553 34.9765 186.435C34.9167 186.4 34.858 186.359 34.8018 186.304C33.4127 184.961 31.7074 184.079 30.1051 183.027C29.1983 182.432 30.046 180.969 30.9582 181.568C32.3091 182.454 33.7167 183.241 34.9826 184.234C34.99 182.453 35.0057 180.671 35.041 178.889C35.0625 177.801 36.7526 177.801 36.7311 178.889C36.625 184.259 36.6605 189.631 36.782 195.001C37.1752 212.403 38.4111 229.773 38.9739 247.169C47.2556 246.815 55.5377 246.458 63.8207 246.156C70.558 245.911 77.2953 245.666 84.0326 245.42C85.446 245.37 86.2404 244.359 86.4136 243.038C86.7305 240.608 86.1348 238.095 84.7869 236.051C84.6474 235.84 84.4826 235.652 84.2988 235.491C84.3305 234.035 84.3897 232.576 84.3073 231.12C84.1848 228.897 84.0009 226.674 83.8404 224.452C83.515 220.003 83.2636 215.546 83.1643 211.087C82.9615 202.168 83.1094 193.24 83.6143 184.334C84.6263 166.54 86.9819 148.861 90.8376 131.456C91.1186 130.188 91.4017 128.92 91.6953 127.654C94.6932 129.212 98.3397 129.771 101.616 129.793C105.723 129.818 109.74 128.873 113.45 127.155C113.424 127.347 113.399 127.538 113.376 127.73C112.34 135.973 111.468 144.232 110.707 152.502C109.19 168.99 108.261 185.545 108.39 202.106C108.426 206.695 108.601 211.268 108.819 215.85C109.04 220.511 109.381 225.435 110.678 229.93C110.821 230.427 111.14 230.712 111.508 230.816C111.527 231.471 111.569 232.129 111.616 232.775C111.766 234.878 112.195 239.247 113.112 241.153C114.005 243.013 115.495 244.488 117.394 245.3C119.807 246.329 122.416 246.033 124.964 245.868C136.043 245.146 147.113 244.178 158.185 243.328C159.728 243.21 161.27 243.093 162.81 242.973C164.181 242.867 165.599 242.774 166.816 242.062C168.2 241.253 169.279 237.277 168.802 235.633C168.715 235.333 168.584 235.037 168.411 234.77Z" fill="black"/>
<path fill-rule="evenodd" clip-rule="evenodd" d="M134.024 56.8958C133.94 52.1612 133.847 47.3318 133.144 42.6432C132.456 38.0595 130.563 33.9161 127.312 30.5876C120.405 23.5173 110.393 21.7903 101.073 20.2078L85.1396 17.5018C80.2785 16.6765 75.0925 15.3573 70.1812 16.5277C67.7611 17.1045 65.7059 18.4445 63.8275 20.0298C62.017 21.5579 60.0703 23.1988 58.8435 25.2546C57.6146 27.3134 57.1918 29.72 56.7923 32.0484C56.3417 34.6736 55.9916 37.3193 55.7429 39.9713C55.2446 45.2847 55.1765 50.638 55.538 55.9623C55.7132 58.5448 55.9918 61.1199 56.3476 63.6836C56.524 64.9548 56.7234 66.2229 56.9486 67.4866C57.015 67.8592 57.0655 68.2718 57.1335 68.6886C56.6309 70.1186 56.3453 71.5995 56.3683 73.0741C56.4361 77.4177 60.101 80.1524 63.7956 81.6207C65.9379 82.472 68.1775 83.0504 70.2824 84.0015C72.4967 85.0018 74.0039 86.6235 75.5178 88.4735C78.4052 92.0018 81.6636 95.1729 85.3842 97.8185C93.2725 103.428 103.264 106.081 112.835 104.067C115.132 103.584 117.448 102.834 119.513 101.703C121.692 100.51 123.331 98.7804 124.707 96.7356C127.262 92.9395 129.095 88.665 130.481 84.3152C131.895 79.8781 132.899 75.433 133.446 70.8063C133.992 66.1946 134.107 61.536 134.024 56.8958Z" fill="white"/>
<path fill-rule="evenodd" clip-rule="evenodd" d="M83.1784 1.00883C89.7721 0.1015 98.8729 3.05047 102.157 8.9966C117.834 5.29924 137.607 5.17813 150.528 17.4865C164.011 32.087 147.076 51.3379 135.847 55.6782C136.664 59.653 135.389 85.1176 126.369 96.4762C119.211 106.1 102.54 110.542 94.8263 99.0466L94.7661 98.9518C93.9396 97.6242 94.6514 97.6668 95.4998 98.6544C103.053 105.3 113.324 105.413 121.238 98.4001C136.071 85.5817 134.541 54.1518 127.483 35.9691C107.385 33.7609 85.867 39.8548 71.9857 54.9894L72.9244 60.6426C73.0843 61.6057 73.266 62.568 73.4046 63.5345C73.4933 64.1537 73.5032 64.7696 73.0743 65.2709C71.6582 66.9258 69.2715 64.4391 67.3078 63.4499C66.7281 63.3684 66.1473 63.3369 65.5777 63.377C56.1429 64.5927 58.0019 82.902 68.3713 79.6926C69.2426 79.1497 69.9911 79.3154 70.3291 80.1033C72.8008 82.3681 74.4305 86.4074 78.5369 90.298C79.9858 91.7574 81.3043 92.9783 82.934 94.149C83.8913 95.1174 86.7797 96.1048 85.8641 97.762C84.1325 101.533 73.9217 89.6878 72.1165 86.4121C66.4602 88.6465 60.1919 87.8875 54.3303 87.3414C23.407 85.733 27.5352 53.1238 52.8822 32.536C57.6535 29.022 62.9177 26.1555 68.3897 23.9496C69.1367 23.6485 68.8103 22.4214 68.0527 22.7268C64.432 24.1866 60.9024 25.9241 57.5377 27.9351L57.5326 26.7328C57.5277 24.7078 57.5595 22.5996 57.911 20.7494C58.0868 19.4673 58.3824 18.098 58.8374 17.0679C59.4001 13.9096 68.2131 3.06907 83.1784 1.00883ZM65.165 67.5805C65.6425 67.1267 66.5338 67.6678 66.9589 67.6543C68.0459 67.803 69.0786 68.2623 69.8839 68.8291C70.4157 69.1272 70.7883 69.407 71.0998 69.6644L71.1082 69.6621C71.1059 69.6621 71.1029 69.6644 71.1004 69.665L71.1297 69.6849C71.5831 70.0071 73.243 71.8225 72.1943 71.3343C72.1162 71.2326 72.0361 71.135 71.9554 71.0392C71.9467 71.0523 71.9347 71.0652 71.9203 71.0777L71.9792 71.1652C72.8706 72.5065 71.3317 71.0933 71.0949 70.718C71.0837 70.7271 71.071 70.7332 71.0586 70.7398L71.3669 71.1152C71.41 71.1685 71.4439 71.211 71.472 71.247L71.537 71.3098C72.5676 72.3231 72.5998 73.2351 71.4025 71.7369C71.4496 71.8075 71.4874 71.8823 71.4927 71.9487L71.5637 72.0392C72.5037 73.251 71.7391 72.8206 71.272 72.3031L71.2329 72.2585L71.2409 72.2706C71.6755 72.9403 70.8132 72.4704 70.6608 72.1122L70.6544 72.096C70.4884 71.9605 70.3862 71.8084 70.3512 71.77L70.3447 71.7635C69.5364 70.935 68.3647 70.234 67.3694 69.9155C67.2251 69.888 67.0791 69.866 66.9317 69.8504C66.3331 69.7168 65.7281 69.6253 65.1167 69.5759C65.0419 69.567 64.966 69.512 64.9094 69.441C63.9849 69.4098 64.2703 69.0307 64.6538 68.9603L64.6606 68.9591L64.5845 68.9527C63.9911 68.8948 63.5859 68.6818 64.1858 68.5511L64.2619 68.536C64.2526 68.5214 64.2443 68.5068 64.2363 68.4923C63.7225 68.4358 64.0578 67.9362 64.343 68.0571C64.223 67.6646 64.7715 67.8605 64.8399 67.8022C64.8921 67.7443 64.9569 67.6931 64.9943 67.6904C65.1595 67.5737 65.0795 67.5843 65.165 67.5805ZM68.3088 61.2261L68.1884 61.2965C68.091 61.3533 67.9908 61.3912 67.8903 61.4134C68.0322 61.4738 68.1725 61.5391 68.3113 61.6089C68.3091 61.5236 68.3075 61.4385 68.3075 61.3535L68.3088 61.2261Z" fill="black"/>
<path fill-rule="evenodd" clip-rule="evenodd" d="M110.152 87.2741C108.732 86.6945 107.465 85.7277 106.538 84.4927C106.216 84.0633 106.133 83.6099 106.2 83.1953C106.276 82.729 106.552 82.3064 106.928 82.0229C107.305 81.7386 107.777 81.5984 108.233 81.6698C108.63 81.732 109.024 81.9491 109.337 82.3994L109.402 82.4894C109.953 83.2349 110.67 83.8465 111.488 84.2407C112.276 84.6207 113.158 84.798 114.07 84.6949C115.808 84.4985 117.005 83.5585 118.278 82.282C118.436 82.1209 118.594 81.9547 118.752 81.7858C118.852 81.6327 118.991 81.5343 119.146 81.4827C119.317 81.4254 119.511 81.4286 119.689 81.4906C119.86 81.5504 120.013 81.6637 120.116 81.8145C120.213 81.9578 120.269 82.1349 120.251 82.3386C120.134 83.6614 119.443 84.842 118.461 85.7691C117.37 86.7986 115.924 87.5109 114.563 87.7607C113.064 88.0359 111.536 87.8388 110.152 87.2741ZM115.271 66.8663C116.866 67.8364 119.297 70.0985 117.581 72.5035C115.56 74.6241 112.652 72.1927 111.219 71.093C109.89 70.2408 108.396 72.4327 109.629 73.4278C119.986 81.0988 124.19 67.1199 116.078 65.7256C115.184 65.572 114.853 66.5661 115.271 66.8663ZM96.7106 57.9429C96.8869 55.7541 100.219 55.257 100.551 57.423C100.847 59.3632 100.498 61.1455 99.6244 62.8923C98.7897 64.5611 96.6917 63.7825 96.533 62.2629C96.3204 60.2259 96.601 59.3044 96.7106 57.9429ZM122.076 56.9739C122.541 56.3652 123.212 55.9497 124.015 56.1845C126.526 56.9185 125.786 60.4846 124.904 62.2204C124.425 63.163 122.876 63.4021 122.176 62.5721C121.035 61.2186 120.489 58.5157 121.939 57.1825C121.979 57.1136 122.023 57.044 122.076 56.9739ZM99.589 48.3654L99.9857 48.2959C101.213 48.0836 102.738 47.8796 103.606 48.8665C104.067 49.3898 104.225 50.3624 103.606 50.8633C102.518 51.7446 101.314 51.4031 100.01 51.4777C98.9352 51.5394 97.9021 51.7174 96.8666 52.0135C94.5951 52.663 92.7442 53.8486 90.8041 55.1505C90.5495 55.3213 90.2897 54.9956 90.4112 54.7574C91.5311 52.563 93.7014 50.7604 95.8754 49.6616C97.0357 49.0751 98.3054 48.5885 99.589 48.3654ZM119.787 47.3823L120.091 47.4445C123.394 48.1353 127.687 49.5153 129.251 52.7615C129.311 53.2205 129.248 53.3189 129.197 53.3832L129.179 53.4046C129.137 53.4595 129.104 53.5351 128.905 53.5976C128.85 53.5844 128.794 53.5705 128.737 53.5557C128.02 53.3677 127.453 53.1087 126.904 52.84L126.308 52.5465C125.617 52.2076 124.92 51.881 124.181 51.6399C122.605 51.1255 120.983 50.7631 119.337 50.5696C118.98 50.5277 118.636 50.4072 118.365 50.2007C118.108 50.0046 117.911 49.7332 117.821 49.3724C117.705 48.9056 117.738 48.5521 117.989 48.1309C118.177 47.8146 118.447 47.5953 118.756 47.4694C119.071 47.3411 119.43 47.3108 119.787 47.3823Z" fill="black"/>
<path fill-rule="evenodd" clip-rule="evenodd" d="M136.071 71.228C135.371 70.2877 134.112 69.0536 132.839 69.12C132.676 69.1284 132.615 69.3049 132.713 69.4243C133.129 69.933 133.698 70.2949 134.116 70.8142C134.609 71.4288 134.966 72.17 135.197 72.9196C135.534 74.0087 135.627 75.2413 135.327 76.3488C134.798 78.3008 133.125 79.7317 131.3 80.4623C129.494 81.1855 127.321 81.4326 125.612 80.3729C123.091 78.8085 120.952 76.5534 117.783 76.5088C117.042 76.4984 116.519 76.8381 116.208 77.3229C115.895 76.8554 115.379 76.5246 114.657 76.5164C111.104 76.4765 108.452 78.9233 105.47 80.4486C103.455 81.4795 100.847 81.1596 98.7678 80.4784C96.8066 79.8361 94.6776 78.5462 93.9378 76.5094C93.5294 75.3846 93.6209 74.0713 94.0402 72.9625C94.3159 72.2334 94.7416 71.529 95.2683 70.956C95.8145 70.3617 96.5323 69.988 97.0918 69.4245C97.2061 69.3094 97.1159 69.1303 96.9657 69.12C94.5897 68.9587 92.4443 71.7967 91.9958 73.8557C91.554 75.8834 92.2128 77.9058 93.5461 79.4531C96.2573 82.5988 101.277 83.6364 105.185 82.7119C108.347 81.964 111.351 80.241 114.657 80.4883C115.381 80.5426 115.901 80.2404 116.215 79.7822C116.53 80.2537 117.053 80.5621 117.783 80.4915C120.864 80.1928 123.614 82.3757 126.605 82.9087C128.986 83.3329 131.558 82.7607 133.599 81.4774C135.731 80.136 137.233 77.9842 137.331 75.4189C137.388 73.943 136.955 72.416 136.071 71.228Z" fill="black"/>
</svg>
