<svg width="168" height="239" viewBox="0 0 168 239" fill="none" xmlns="http://www.w3.org/2000/svg">
<path fill-rule="evenodd" clip-rule="evenodd" d="M11.4644 235.051C39.0654 239.245 67.1671 239.456 94.9975 237.933C106.012 237.108 117.06 236.96 128.065 238.014C134.568 238.498 163.081 240.679 165.41 234.852C163.944 203.825 160.975 172.533 151.865 142.693C148.119 132.097 144.901 123.303 137.589 114.535C135.284 112.141 130.314 107.12 127.467 105.482C125 104.064 123.968 104.57 122.552 102.174C121.144 99.5273 120.106 95.1071 118.107 93.2395C116.072 91.338 113.056 92.0184 109.317 92.6308C110.004 83.3461 105.72 80.9814 99.8179 79.2158C89.4437 75.2549 79.198 77.2447 76.5869 89.8786C71.7455 89.8786 69.026 91.9629 66.086 93.9655C64.8842 94.7842 65.7202 96.8699 64.2847 97.5134C61.6287 98.4594 56.9352 98.2277 54.378 99.3919C42.749 104.686 32.3915 112.364 25.5895 123.576C10.3402 147.515 -0.13492 197.942 1.67775 226.315C0.883558 227.561 1.98179 229.348 2.26094 230.687C2.6133 231.853 3.75437 232.628 4.94523 232.495C6.60704 234.283 9.17739 234.681 11.4644 235.051Z" fill="white"/>
<path fill-rule="evenodd" clip-rule="evenodd" d="M125.709 104.78C125.54 104.686 125.689 104.444 125.859 104.524C134.045 108.365 140.324 115.105 144.743 122.892C149.318 130.956 151.926 140.11 154.174 149.058L154.255 149.382C156.652 158.954 158.69 168.625 160.526 178.319C162.384 188.137 163.876 198.015 165.076 207.934C165.669 212.839 166.199 217.752 166.612 222.675C166.818 225.135 167.005 227.597 167.174 230.06C167.241 231.045 167.304 232.03 167.358 233.016L167.397 233.755C167.431 234.426 167.511 235.099 167.345 235.761C167.202 236.331 166.9 236.847 166.635 237.371C166.109 238.406 164.67 238.236 164.104 237.371L163.939 237.119C163.564 236.539 163.252 236 163.134 235.278C163.02 234.578 163.016 233.845 162.965 233.139C162.871 231.84 162.791 230.539 162.7 229.239C162.508 226.502 162.293 223.767 162.054 221.034C161.583 215.64 161.078 210.249 160.457 204.869C159.353 195.308 157.969 185.772 156.337 176.286C154.742 167.02 152.726 157.848 150.623 148.688L150.406 147.74C146.723 131.746 141.048 113.328 125.709 104.78ZM38.5218 167.408C38.582 167.248 38.841 167.211 38.8848 167.408C39.4362 169.892 39.4907 172.45 39.575 174.993C39.658 177.501 39.6546 180.021 39.6181 182.53C39.4833 191.754 39.2302 200.97 39.0113 210.193C38.9019 214.806 38.7992 219.42 38.7204 224.034C38.6906 225.764 38.6656 227.494 38.6448 229.225L38.6193 231.507C38.6066 232.516 38.5801 233.513 38.4572 234.521C38.376 235.184 38.2032 235.817 37.8373 236.385C37.5776 236.788 37.2075 236.993 36.8468 237.267L36.7793 237.32C36.3191 237.683 35.8345 237.686 35.3788 237.32L35.2464 237.215C34.8111 236.874 34.4349 236.608 34.157 236.07C33.7704 235.321 33.7085 234.507 33.6428 233.682C33.5431 232.431 33.6092 231.161 33.6221 229.907C33.6479 227.389 33.6827 224.873 33.7269 222.356C33.8889 213.126 34.2092 203.894 34.7929 194.681C35.0679 190.341 35.4408 185.987 35.941 181.665L36.0362 180.855C36.1879 179.583 36.3263 178.289 36.4822 176.99C34.1547 175.353 32.1088 173.366 30.3641 171.111C30.2357 170.945 30.4472 170.713 30.6022 170.873C32.3849 172.72 34.4289 174.192 36.6918 175.349C37.0626 172.631 37.5724 169.928 38.5218 167.408ZM77.4061 85.1325C77.438 85.1078 77.4879 85.097 77.5183 85.1325C78.0186 85.716 77.9172 86.6081 77.9333 87.3475L77.9352 87.4164C77.9711 88.4974 77.9778 89.5751 77.9742 90.6568L77.963 94.0999C77.9615 94.5733 77.9231 95.0661 77.9474 95.5424L77.9601 95.7267C78.2229 95.9959 78.345 96.385 78.2559 96.7758C78.2398 97.2771 77.9778 97.6954 77.5956 97.9583L78.4148 99.1208L79.2347 100.283C80.9246 102.681 82.6331 105.057 84.4137 107.389C86.2293 109.766 88.1662 112.054 90.1931 114.254C91.1833 115.329 92.1904 116.389 93.221 117.425C93.6398 117.846 94.069 118.257 94.4935 118.672L94.9158 119.09C95.1653 119.339 95.4792 119.586 95.6449 119.902C95.7423 120.089 95.7645 120.549 95.7993 120.625C96.112 121.313 95.5785 122.409 94.6921 122.066L94.7323 122.039C94.8937 121.927 94.7903 121.925 94.4218 122.034C94.1895 122.034 93.9715 121.98 93.768 121.874L93.7073 121.841C93.4207 121.695 93.1648 121.413 92.9319 121.187L92.8741 121.132C92.3415 120.633 91.8338 120.104 91.3234 119.582C90.258 118.493 89.2166 117.381 88.2085 116.239C86.1972 113.962 84.2905 111.591 82.4848 109.147C80.6455 106.658 78.9359 104.041 77.4657 101.317C76.9078 100.283 76.3963 99.2294 75.9059 98.1633C74.9514 97.8569 74.7298 96.8413 74.7963 95.6973C74.4442 94.8768 74.1268 94.0394 73.9392 93.1839C73.9137 93.0666 74.0643 92.9561 74.1545 93.0586C74.4598 93.4056 74.7425 93.775 75.0142 94.154C75.1781 93.3519 75.3856 92.6137 75.4832 92.143L75.9063 90.0658C73.5218 89.9416 70.9088 90.9216 69.2649 92.6373C69.1766 93.0841 68.8329 93.4039 68.4978 93.8215C68.115 94.299 67.781 94.8348 67.5319 95.395C66.9794 96.6369 67.2913 98.467 66.2191 99.3782C66.1073 99.473 65.9825 99.539 65.8536 99.5798C66.3624 102.075 66.1315 104.825 66.1204 107.357L66.12 107.58C66.1225 110.413 66.0279 113.249 65.9185 116.081L65.8071 118.883C65.6628 122.62 65.5692 126.359 65.9322 130.075C67.5896 128.607 69.3034 127.205 71.0761 125.87C72.2418 124.992 73.4308 124.145 74.6414 123.33L75.625 122.673C76.8037 121.882 78.0111 121.068 79.3016 120.502C80.9897 119.762 82.5949 120.016 84.2246 120.775C85.8475 121.532 87.4221 122.41 89.014 123.23C90.6332 124.064 92.2557 124.89 93.8772 125.719C94.9513 126.268 96.5252 126.764 97.313 127.775C97.3633 127.551 97.4218 127.328 97.4903 127.106C97.4121 126.767 97.4423 126.401 97.6323 126.052C100.279 121.186 102.729 116.204 105.161 111.228C106.392 108.71 107.562 106.162 108.796 103.645L109.995 101.194C110.195 100.785 110.396 100.377 110.598 99.9699C110.901 99.36 111.216 98.7559 111.521 98.1475C111.651 97.8904 111.813 97.635 111.939 97.3755L111.998 97.2454C112.001 97.2386 112.292 96.3247 112.067 96.4119L112.048 96.4211C111.933 96.486 111.842 96.3419 111.916 96.25C112.233 95.8575 112.675 96.2051 112.856 96.5685C113.355 97.5683 112.441 99.1378 112.089 100.095L112.07 100.149C110.979 103.238 109.743 106.27 108.477 109.292C106.05 115.084 103.443 120.788 100.841 126.501L100.81 126.599C101.365 126.174 101.957 125.788 102.465 125.412C103.744 124.464 105.061 123.562 106.376 122.663C108.788 121.015 111.264 119.476 113.782 117.997L114.286 117.702C115.544 116.969 116.79 116.375 118.283 116.595C119.67 116.799 120.959 117.545 122.212 118.15L122.341 118.212L126.213 120.053C125.799 118.402 125.351 116.759 124.883 115.122C123.971 111.929 122.968 108.763 121.88 105.626C120.864 102.694 119.765 99.7945 118.603 96.9178L118.254 96.0545C117.78 94.8701 117.309 93.5786 115.955 93.2139C114.601 92.8493 113.049 93.39 111.813 92.6183C111.7 92.5482 111.714 92.3628 111.85 92.3286L112.614 92.1361C114.046 91.7796 115.726 91.4209 117.081 91.7676C118.556 92.1455 119.775 93.3834 120.491 94.6703C121.286 96.1019 121.847 97.704 122.451 99.2306L122.546 99.4709C123.239 101.199 123.905 102.936 124.543 104.685C125.818 108.181 126.978 111.719 128.029 115.289C128.535 117.009 129.015 118.738 129.477 120.47C129.609 120.969 129.828 121.573 130.008 122.203C130.214 122.404 130.408 122.628 130.591 122.884C130.894 123.308 130.677 123.805 130.3 124.059C130.285 124.492 130.189 124.9 129.959 125.25C129.06 126.615 126.683 126.263 126.78 124.428C126.794 124.147 126.904 123.879 127.069 123.652L127.065 123.616L127.046 123.548C126.633 123.351 126.219 123.13 125.782 122.914L121.719 120.906C120.542 120.324 119.238 119.425 117.929 119.203C116.709 118.997 115.422 119.906 114.374 120.455L114.306 120.49C111.772 121.789 109.256 123.132 106.751 124.485C105.528 125.146 104.321 125.835 103.102 126.503C102.084 127.063 100.984 127.865 99.8392 128.181C99.3501 128.561 98.7691 128.51 98.3022 128.223C98.5156 129.545 98.5025 130.901 98.568 132.253C98.656 134.06 98.6695 135.872 98.6986 137.681L98.7104 138.359C98.7873 142.359 98.8285 146.36 98.8437 150.361C98.8978 164.608 98.7404 178.859 98.7036 193.106C98.685 200.264 98.5433 207.428 98.3573 214.583C98.2785 217.615 98.1137 220.643 97.9358 223.671L97.8378 225.322C97.6306 228.806 97.5083 232.329 96.8635 235.766C96.7794 236.214 96.0209 236.226 95.9466 235.766C95.3532 232.083 95.3202 228.319 95.2061 224.593L95.182 223.848C95.0449 219.847 94.9798 215.849 94.9937 211.846C95.0444 197.593 95.4148 183.35 95.7178 169.102C95.8701 161.943 95.9725 154.781 96.2092 147.624C96.3275 144.043 96.4614 140.465 96.6203 136.885C96.6913 135.287 96.7595 133.69 96.8656 132.095L96.9135 131.411C96.9465 130.965 96.9731 130.524 97.0054 130.087C95.5639 130.614 94.2456 129.639 92.9489 128.972C91.4544 128.203 89.9605 127.432 88.4654 126.665L86.969 125.898L83.9744 124.37C82.6261 123.681 81.5873 122.996 80.1492 123.804C74.9683 126.711 70.2074 130.58 65.8929 134.64C65.0656 135.419 63.3173 135.21 63.1078 133.905C62.2125 128.33 62.757 122.675 63.214 117.084L63.3825 115.008C63.5867 112.528 63.8091 110.049 64.1054 107.58C64.2379 106.475 64.3698 105.371 64.5159 104.269L64.6283 103.442C64.8108 102.135 64.9299 100.836 65.3191 99.5832C65.1963 99.5434 65.0783 99.4783 64.9726 99.3782C63.8026 98.2677 64.3667 96.3408 64.9006 95.0199C65.4277 93.7161 66.2316 92.5782 67.2383 91.5988C67.4578 91.3849 67.7673 91.2473 68.0782 91.2401C70.519 89.6224 73.1966 88.8151 75.9835 89.6981C76.0617 89.3237 76.1416 88.9499 76.2256 88.577L76.3111 88.2045C76.5279 87.2794 76.6084 85.7513 77.4061 85.1325ZM102.421 231.222C103.179 231.013 104.008 231.233 104.563 231.788C105.118 232.343 105.338 233.173 105.129 233.93C105.024 234.303 104.836 234.627 104.563 234.902C104.308 235.156 104.011 235.336 103.671 235.445L103.592 235.468L103.468 235.52C103.088 235.622 102.708 235.622 102.329 235.52C101.966 235.418 101.651 235.234 101.383 234.969C101.118 234.701 100.934 234.386 100.832 234.023C100.73 233.643 100.73 233.263 100.832 232.884L100.884 232.76C100.989 232.387 101.177 232.063 101.45 231.788C101.725 231.515 102.049 231.326 102.421 231.222ZM147.394 155.719C147.518 155.576 147.72 155.759 147.643 155.911C146.463 158.225 145.148 160.522 143.856 162.777C143.959 163.402 144.062 164.022 144.18 164.626C144.683 167.202 145.3 169.731 145.702 172.331C147.147 181.676 147.897 191.124 148.541 200.553C149.187 210.017 149.269 219.484 149.366 228.966C149.375 229.788 148.743 230.743 147.896 230.898C147.509 230.969 147.218 230.955 146.832 230.898C145.95 230.768 145.399 229.758 145.361 228.966C145.109 223.667 144.769 218.374 144.375 213.083C143.677 203.703 143.25 194.297 142.687 184.907L142.488 181.625C142.275 178.069 142.08 174.51 142.016 170.949C141.974 168.589 142.1 166.231 142.023 163.874C141.951 161.698 141.731 159.332 142.21 157.194C142.228 157.114 142.354 157.094 142.391 157.171C142.89 158.221 143.205 159.362 143.449 160.527C144.734 158.901 146.042 157.272 147.394 155.719ZM63.2255 98.243C63.4059 98.2301 63.3988 98.5013 63.2255 98.5213C60.7038 98.8139 58.2678 99.8405 55.8868 100.713L55.6828 100.787C53.2773 101.661 50.9321 102.676 48.6751 103.886C44.2623 106.252 40.2102 109.303 36.6276 112.796C22.3237 126.739 15.805 146.846 11.0285 165.741C8.37453 176.239 6.48728 186.915 5.26404 197.672C4.65918 202.992 4.23157 208.332 3.98228 213.681C3.85467 216.422 3.77418 219.166 3.74059 221.91C3.72326 223.315 3.71819 224.721 3.71988 226.127C3.72073 226.771 3.83566 227.582 3.66347 228.207C3.50376 228.787 3.05333 229.297 2.72016 229.78C2.3253 230.352 1.61566 230.322 1.2153 229.78L1.06767 229.582C0.640693 229.016 0.222915 228.474 0.161924 227.733C0.0966423 226.939 0.142699 226.121 0.139741 225.324C0.13298 223.717 0.15284 222.111 0.184952 220.504C0.246854 217.426 0.368122 214.349 0.548333 211.275C0.914248 205.037 1.51657 198.811 2.37897 192.623C3.91192 181.622 6.20967 170.726 9.21939 160.035C12.0588 149.95 15.4226 139.894 20.2146 130.552C24.6639 121.878 30.5008 113.809 38.2028 107.747C41.7844 104.928 45.6833 102.579 49.8869 100.809C52.007 99.9171 54.2333 99.1886 56.4975 98.7733C58.7365 98.3626 60.9658 98.4199 63.2255 98.243ZM102.855 213.395C103.255 213.392 103.701 213.48 104.045 213.701L104.503 214.056C104.627 214.215 104.751 214.376 104.874 214.536C105.161 214.91 105.199 215.515 105.139 215.96C105.125 216.257 105.037 216.534 104.874 216.79L104.525 217.242C104.189 217.516 103.91 217.711 103.503 217.843C103.291 217.911 103.087 217.926 102.883 217.915L102.815 217.911L102.855 217.917L102.784 217.909C102.718 217.903 102.651 217.896 102.584 217.887C102.539 217.881 102.493 217.877 102.448 217.871C102.404 217.868 102.362 217.866 102.318 217.87C101.801 217.919 101.282 217.626 100.916 217.289C100.586 216.986 100.289 216.343 100.335 215.887L100.355 215.696C100.39 215.375 100.418 215.248 100.554 214.926C100.687 214.611 100.871 214.334 101.123 214.1C101.605 213.652 102.194 213.4 102.855 213.395ZM101.257 189.875C101.943 189.128 103.12 189.073 103.969 189.525C104.176 189.636 104.367 189.812 104.549 189.96C105.009 190.332 105.19 191.003 105.215 191.568C105.24 192.127 104.946 192.791 104.549 193.177L104.453 193.27C104.216 193.501 103.877 193.701 103.546 193.762C103.011 193.86 102.563 193.857 102.065 193.647C101.638 193.467 101.269 193.177 101.019 192.783L100.978 192.717C100.961 192.689 100.944 192.661 100.929 192.632L100.907 192.589C100.431 191.673 100.559 190.636 101.257 189.875ZM101.612 166.232C101.921 166.135 102.23 166.121 102.539 166.19C102.749 166.191 102.945 166.244 103.126 166.349C103.323 166.404 103.494 166.504 103.639 166.648C103.813 166.751 103.953 166.89 104.056 167.065C104.261 167.29 104.4 167.553 104.472 167.856L104.555 168.474L104.472 169.093L104.238 169.648C104.173 169.732 104.108 169.816 104.043 169.9C103.939 170.075 103.8 170.215 103.625 170.319C103.511 170.432 103.38 170.517 103.234 170.575C102.717 170.947 102.027 171.068 101.414 170.899C101.05 170.797 100.733 170.612 100.465 170.346C100.199 170.077 100.014 169.761 99.9125 169.397L99.8705 169.106C99.8164 168.716 99.8078 168.5 99.9182 168.004C99.9666 167.786 100.107 167.478 100.181 167.349C100.495 166.796 101.009 166.417 101.612 166.232ZM128.45 149.222C129.338 149.216 130.225 149.217 131.112 149.227L131.778 149.236C132.892 149.254 133.847 149.139 134.723 149.912C135.359 150.473 135.079 151.415 134.475 151.838C133.561 152.479 132.413 152.156 131.362 152.086C130.253 152.011 129.144 151.95 128.034 151.9C125.885 151.804 123.735 151.742 121.583 151.733C119.437 151.724 117.287 151.744 115.14 151.779C112.956 151.814 110.682 152.018 108.51 151.792C108.212 151.761 108.145 151.368 108.439 151.266C110.486 150.558 112.788 150.328 114.933 150.058C117.145 149.778 119.357 149.58 121.583 149.452C123.87 149.321 126.16 149.238 128.45 149.222ZM101.608 142.265L101.681 142.267C102.072 142.268 102.438 142.36 102.778 142.543L102.851 142.583L103.32 142.946C103.607 143.235 103.806 143.576 103.916 143.969L103.999 144.585C104.011 144.904 103.944 145.202 103.799 145.478C103.706 145.766 103.546 146.014 103.32 146.224C103.11 146.45 102.861 146.61 102.574 146.704C102.319 146.837 102.046 146.905 101.755 146.905L101.681 146.903C101.263 146.902 100.873 146.796 100.512 146.587L100.043 146.224C99.7556 145.935 99.5568 145.594 99.447 145.201L99.3639 144.585C99.3521 144.266 99.4184 143.968 99.5638 143.692C99.6572 143.404 99.8169 143.156 100.043 142.946C100.253 142.72 100.501 142.56 100.789 142.466C101.044 142.332 101.317 142.265 101.608 142.265ZM108.478 87.8068C108.977 87.0833 109.882 87.7267 109.753 88.3083C109.787 89.9418 109.871 91.5272 110.242 93.1273C110.412 93.8598 110.635 94.5932 110.979 95.2643L111.123 95.5468C111.568 96.4262 111.914 97.2555 111.314 98.2202C111.032 98.675 110.521 99.0166 109.968 98.9927C107.514 98.8868 107.177 95.4699 107.028 93.5625C106.874 91.598 107.352 89.439 108.478 87.8068Z" fill="black"/>
<path fill-rule="evenodd" clip-rule="evenodd" d="M125.371 22.4597C119.022 13.717 107.331 11.2028 97.1919 13.3292C77.371 16.9437 58.434 32.0715 54.9318 52.6452C49.4678 65.0918 52.957 84.6964 68.8476 86.1611C71.11 86.2888 73.3508 85.7678 75.6172 86.0491C89.4492 88.2594 105.794 97.7211 118.038 86.5629C118.652 87.0027 119.46 87.2153 120.149 86.9492C125.36 84.9344 125.605 79.106 126.049 74.3149C126.623 68.1243 127.161 61.9302 127.664 55.7336C127.843 45.0473 132.077 31.6936 125.371 22.4597Z" fill="white"/>
<path fill-rule="evenodd" clip-rule="evenodd" d="M86.943 0.181995C95.2881 -0.26184 110.664 3.56191 117.945 8.04486C129.807 15.3489 130.726 29.919 130.242 32.4383C130.059 33.3997 129.471 34.2895 128.552 33.9938C129.332 40.6131 129.271 44.3965 129.401 51.054L129.491 55.4988C129.55 58.462 129.6 61.4256 129.613 64.39C129.913 64.2782 130.209 64.4154 130.318 64.703C130.346 64.7728 130.251 64.8108 130.204 64.7706C129.676 64.3097 130.052 65.3601 130.234 65.5738C130.485 65.8675 130.904 66.1444 131.197 66.3959L131.995 67.0867L132.792 67.776C133.823 68.6653 134.819 69.5563 135.78 70.5143L136.042 70.7772C137.793 72.5568 139.988 74.2791 141.078 76.5809C142.12 78.7787 141.799 81.2706 140.068 83.0226C139.439 83.6588 138.704 84.1451 137.905 84.5129C139.327 86.8546 139.534 89.9509 138.051 92.3601C136.566 94.7782 133.709 96.0441 130.959 95.8497C130.874 96.1942 130.743 96.5302 130.57 96.8492C129.479 98.8544 127.309 99.1147 125.252 99.0074L125.172 99.0031C120.541 98.7365 116.085 97.5764 112.029 95.3213C110.622 95.4164 109.367 94.2601 109.092 92.992C108.353 92.9648 107.609 92.9033 106.851 92.8166C104.601 92.5569 102.294 92.0729 100.31 90.9295C100.006 90.754 100.147 90.2912 100.485 90.2825C102.902 90.2276 105.321 90.3948 107.734 90.1327C109.948 89.8936 112.308 89.283 114.372 88.4524C118.082 86.9561 121.263 84.4178 123.019 80.9007C125.292 76.3482 125.085 70.8808 125.332 65.9352C125.606 60.4608 125.943 54.9915 126.304 49.5228L126.479 46.9014C126.829 41.7918 127.118 39.0584 128.005 33.755C125.332 33.9938 114.231 29.9965 110.778 23.4578C104.226 37.3678 71.028 31.675 69.5557 53.0893C69.5432 53.2709 69.2557 53.2204 69.2451 53.0468L69.2178 52.5588C69.2045 52.3176 69.1925 52.0803 69.1843 51.8448L69.1775 51.6099L68.6557 51.6162C68.6557 51.6815 68.5628 51.705 68.5395 51.6352C68.0473 50.238 65.7022 50.6882 64.6818 51.0202C63.7628 51.3201 62.8966 51.7808 62.1191 52.3496C60.5578 53.4909 59.3473 55.0274 58.9459 56.9484C58.1832 60.5965 60.505 64.312 63.5874 66.0726C65.5311 67.1821 67.6606 67.8986 69.524 69.1562C71.1698 70.2657 72.7036 71.5656 74.0325 73.0429C79.2973 78.8952 82.3944 87.7719 79.9036 95.4967C79.7135 96.0864 79.2106 96.7604 78.5451 96.8557C77.4444 97.0142 76.3437 96.8536 75.7268 95.8053C75.486 95.3953 75.3719 94.9282 75.3973 94.4675C74.9705 95.934 73.5867 97.3841 72.3106 97.9294C70.5719 98.6733 68.6135 98.4512 67.0797 97.4917L66.8859 97.6351C64.3915 99.4718 61.6051 101.146 58.4092 100.808C56.0937 100.563 53.8205 99.3835 52.5402 97.5236C50.8374 98.481 49.0184 99.2438 47.1423 99.7637L46.9427 99.8186C44.3615 100.522 41.0692 101.166 38.6599 99.7383C36.3466 98.3667 35.5775 95.3718 36.1205 92.8716C36.186 92.5738 36.2684 92.2842 36.3698 92.0031C34.629 92.0959 32.8902 91.9292 31.2381 91.4177C29.5501 90.8954 27.9402 89.8915 27.1311 88.2643C26.2184 86.4233 26.4613 84.3311 27.1416 82.4564C28.2297 79.4487 29.979 76.773 32.1571 74.442C34.2518 72.1985 36.7784 70.2951 39.4043 68.7085L39.8469 68.4435C42.2107 67.0332 45.0613 65.3805 47.8543 65.4892C47.8459 65.4533 47.8395 65.4193 47.8353 65.3836C47.4128 62.2704 47.4613 59.0959 47.362 55.9573C47.2712 53.0703 47.1677 50.1833 47.1001 47.2941C46.9902 42.3821 47.0261 37.4494 47.6663 32.5714C48.2346 28.243 49.2571 24.0221 51.1226 20.0593C53.0811 15.8959 56.0304 12.3431 59.6726 9.54904C67.3163 3.68407 77.4128 0.689236 86.943 0.181995ZM60.9803 57.8742C61.8127 56.3039 63.7078 55.8093 65.3705 56.0925C67.7008 56.4899 69.2853 58.5275 70.6458 60.2796C72.074 62.116 69.0951 63.847 68.3282 62.0676L68.1465 61.6472C67.5311 60.236 66.804 58.748 65.5479 57.8277C64.2127 56.8513 62.3282 56.7075 61.1494 58.0052C61.0648 58.1003 60.9233 57.9778 60.9803 57.8742Z" fill="black"/>
<path fill-rule="evenodd" clip-rule="evenodd" d="M107.152 77.2741C105.732 76.6945 104.465 75.7277 103.538 74.4927C103.216 74.0633 103.133 73.6099 103.2 73.1953C103.276 72.729 103.552 72.3064 103.928 72.0229C104.305 71.7386 104.777 71.5984 105.233 71.6698C105.63 71.732 106.024 71.9491 106.337 72.3994L106.402 72.4894C106.953 73.2349 107.67 73.8465 108.488 74.2407C109.276 74.6207 110.158 74.798 111.07 74.6949C112.808 74.4985 114.005 73.5585 115.278 72.282C115.436 72.1209 115.594 71.9547 115.752 71.7858C115.852 71.6327 115.991 71.5343 116.146 71.4827C116.317 71.4254 116.511 71.4286 116.689 71.4906C116.86 71.5504 117.013 71.6637 117.116 71.8145C117.213 71.9578 117.269 72.1349 117.251 72.3386C117.134 73.6614 116.443 74.842 115.461 75.7691C114.37 76.7986 112.924 77.5109 111.563 77.7607C110.064 78.0359 108.536 77.8388 107.152 77.2741ZM112.271 56.8663C113.866 57.8364 116.297 60.0985 114.581 62.5035C112.56 64.6241 109.652 62.1927 108.218 61.093C106.889 60.2408 105.396 62.4327 106.629 63.4278C116.986 71.0988 121.19 57.1199 113.078 55.7256C112.184 55.572 111.853 56.5661 112.271 56.8663ZM93.7105 47.9429C93.8868 45.7541 97.2191 45.257 97.5505 47.423C97.8474 49.3632 97.4979 51.1455 96.6243 52.8923C95.7896 54.5611 93.6916 53.7825 93.533 52.2629C93.3203 50.2259 93.6009 49.3044 93.7105 47.9429ZM119.076 46.9739C119.541 46.3652 120.211 45.9497 121.015 46.1845C123.526 46.9185 122.786 50.4846 121.904 52.2204C121.425 53.163 119.876 53.4021 119.176 52.5721C118.035 51.2186 117.489 48.5157 118.939 47.1825C118.979 47.1136 119.022 47.044 119.076 46.9739ZM96.589 38.3654L96.9856 38.2959C98.2126 38.0836 99.7382 37.8796 100.606 38.8665C101.067 39.3898 101.225 40.3624 100.606 40.8633C99.5178 41.7446 98.3144 41.4031 97.01 41.4777C95.9351 41.5394 94.902 41.7174 93.8666 42.0135C91.595 42.663 89.7441 43.8486 87.8041 45.1505C87.5495 45.3213 87.2896 44.9956 87.4111 44.7574C88.531 42.563 90.7014 40.7604 92.8753 39.6616C94.0356 39.0751 95.3053 38.5885 96.589 38.3654ZM116.787 37.3823L117.091 37.4445C120.394 38.1353 124.687 39.5153 126.251 42.7615C126.311 43.2205 126.248 43.3189 126.196 43.3832L126.179 43.4046C126.137 43.4595 126.104 43.5351 125.905 43.5976C125.849 43.5844 125.794 43.5705 125.737 43.5557C125.02 43.3677 124.453 43.1087 123.904 42.84L123.308 42.5465C122.617 42.2076 121.92 41.881 121.181 41.6399C119.605 41.1255 117.983 40.7631 116.337 40.5696C115.98 40.5277 115.636 40.4072 115.365 40.2007C115.107 40.0046 114.911 39.7332 114.821 39.3724C114.705 38.9056 114.738 38.5521 114.989 38.1309C115.177 37.8146 115.447 37.5953 115.756 37.4694C116.071 37.3411 116.43 37.3108 116.787 37.3823Z" fill="black"/>
</svg>
