<svg width="175" height="260" viewBox="0 0 175 260" fill="none" xmlns="http://www.w3.org/2000/svg">
<path fill-rule="evenodd" clip-rule="evenodd" d="M112.038 257.762C94.8935 257.81 84.6248 257.609 65.2322 257.328C42.7869 256.734 36.7379 257.803 24.1636 255.333C22.2411 254.924 20.7785 254.305 19.295 253.442C18.7632 254.043 17.8617 254.938 17.0057 254.346C15.4288 253.303 16.1517 249.661 15.7607 247.605C15.1134 229.496 14.0779 210.846 17.6175 192.956C15.4717 192.258 2.89787 187.083 2.21125 185.35C13.5819 155.606 38.5254 120.8 71.3435 122.111C72.0035 122.925 72.5906 124.13 73.3231 124.959C77.7851 123.287 83.9788 121.612 84.2845 115.177C85.0571 110.882 85.6138 106.872 85.9858 102.925C86.0532 102.473 86.5945 102.318 86.927 102.126C87.0684 101.105 87.3929 100.062 88.0972 99.3623C93.8488 98.8454 106.978 101.218 110.423 102.196C115.124 103.001 114.635 108.047 115.51 111.872C116.898 116.601 117.864 121.509 119.927 126.129C120.394 126.193 121.701 126.421 122.183 126.505C122.208 125.982 121.963 124.428 122.443 124.111C123.332 123.217 123.537 124.918 123.734 125.472C143.157 121.803 155.858 138.291 160.114 156.708C163.196 165.97 167.28 175.343 172.612 185.396C175.955 191.637 166.349 192.797 162.323 195.288C166.478 211.462 166.978 227.933 167.66 244.235C167.84 246.742 168.085 250.152 167.197 251.4C166.776 251.727 166.483 251.718 166.056 251.742C165.231 252.632 163.818 252.573 162.628 252.827C158.865 253.511 155.01 253.968 151.388 254.038C141.221 260.332 125.546 256.812 112.038 257.762Z" fill="white"/>
<path fill-rule="evenodd" clip-rule="evenodd" d="M84.5714 102.913C85.1055 100.238 89.5184 100.858 89.3179 103.555C87.0903 113.594 88.4465 125.815 74.3661 124.827C83.3042 140.555 110.905 150.121 119.826 129.472C115.43 128.947 114.561 118.551 114.03 114.913L114.008 114.588C113.89 112.717 113.93 110.983 115.054 109.383C116.176 110.223 116.627 111.745 117.006 113.132L117.285 114.244C118.215 117.947 119.188 121.633 120.663 125.168L120.715 125.176C120.642 122.779 123.718 121.683 124.48 124.251C145.294 121.384 156.68 138.566 161.172 156.537C164.449 166.374 168.72 175.837 173.572 184.985C177.234 192.133 168.342 193.769 163.638 196.147C167.256 210.646 167.966 225.667 168.636 240.537C168.414 243.711 169.848 250.221 167.933 252.497C165.096 254.717 163.568 250.911 164.004 248.471C164.412 231.216 162.615 214.037 162.099 196.809C158.548 198.31 154.954 199.693 151.319 200.977C151.504 217.144 153.426 233.31 154.111 249.394C155.01 250.103 155.507 251.331 154.739 252.402C150.627 258.139 143.193 258.996 136.651 259.078C121.085 259.274 105.501 259.214 89.9336 259.167C74.6416 258.82 59.2165 259.8 44.0053 258.047C41.0243 260.287 40.4146 255.458 40.8139 253.399L40.9655 249.273C41.0675 246.523 41.1755 243.773 41.3146 241.025L41.6612 234.323C42.2415 223.155 42.8565 211.992 43.8322 200.846C34.9962 199.637 26.2871 197.492 17.8556 194.597C18.5496 213.947 17.1259 233.505 19.4999 252.757C21.0665 254.884 17.9247 256.88 16.0907 255.548C13.8162 253.813 14.7916 250.419 14.3374 247.921L14.2791 246.306C13.6425 228.892 12.7727 211.112 16.0174 193.937L14.6217 193.395C10.3673 191.733 -0.573726 187.29 0.861039 185.097C12.2832 155.157 37.8341 119.346 71.6743 121.047C72.5317 121.642 72.9694 122.802 73.6053 123.633L74.6119 123.267C78.511 121.84 82.7453 120.03 82.8608 115.229C83.5989 111.138 84.1844 107.046 84.5714 102.913ZM140.339 177.541C145.187 170.759 111.566 181.478 109.175 182.186L108.275 182.514C93.5498 187.869 77.6751 193.048 65.9334 203.722C65.6866 203.993 65.9938 204.366 66.313 204.215L66.354 204.19C66.8211 203.93 68.8437 203.208 67.4108 203.482C84.3766 192.778 104.087 186.899 123.347 181.756C126.146 181.079 128.958 180.457 131.781 179.89C134.629 179.198 137.843 179.206 140.339 177.541ZM87.2124 175.334C87.6272 173.643 90.4134 158.105 85.7858 162.367C84.552 164.603 84.0783 167.194 83.8563 169.712C83.2594 172.647 84.7658 175.81 83.301 178.516C81.9897 182.05 77.1701 186.179 76.8481 179.613C84.7334 179.343 82.3662 169.348 76.9977 172.438C74.0581 174.955 73.5494 179.695 75.021 183.167C72.6445 180.579 68.791 180.571 66.0403 178.618C61.0727 173.246 69.4163 167.656 73.9596 165.721C74.2155 165.44 77.9401 164.141 77.1508 163.984C73.5842 164.017 70.01 164.776 66.932 166.653C60.5615 169.762 58.3932 179.388 65.6807 182.762C67.2565 183.521 68.9811 183.93 70.5413 184.714C74.473 186.753 73.2027 189.315 69.1438 189.39C67.4743 189.755 61.9651 188.226 62.582 191.153C63.5786 192.983 65.7487 193.256 67.6499 193.307C72.7313 193.655 79.0499 190.784 76.1782 184.804C79.6446 187.759 83.9733 183.628 85.4589 180.419C87.2693 183.97 91.82 182.9 94.3882 180.799C98.3122 183.89 103.236 180.454 104.984 176.617C105.02 177.415 105.055 178.213 105.094 179.012C105.173 180.648 107.708 181.174 108.083 179.417C108.653 176.745 109.439 174.103 110.52 171.592C113.007 164.991 114.528 167.968 114.614 173.141C114.921 175.083 115.893 176.823 118.039 176.954C118.637 176.99 119.417 176.458 119.511 175.833L119.634 175.006C119.896 173.273 120.198 171.488 120.853 169.859C121.483 175.25 128.54 175.224 130.508 170.754C134.59 173.205 138.873 169.781 140.776 166.24L140.833 166.133C141.498 164.922 139.808 163.457 138.842 164.596L138.507 164.945C136.685 166.832 133.786 169.567 131.39 167.238C131.47 166.187 131.438 165.114 131.373 164.08C131.296 162.848 129.595 161.751 128.628 162.853C127.265 161.695 125.572 161.862 124.146 162.67C120.453 163.714 118.127 167.31 117.326 170.884C117.241 168.028 116.307 164.93 113.17 164.661C109.957 164.634 108.727 168.227 107.631 170.646C107.568 169.563 107.507 168.48 107.451 167.396C107.357 165.533 104.772 165.552 104.561 167.341L104.555 167.397C104.148 171.264 102.007 180.527 96.6037 178.714C98.882 176.204 103.003 168.553 99.0853 166.17C93.0555 164.652 89.9625 174.167 92.5341 178.595L92.4006 178.689C90.9316 179.703 88.5039 180.831 87.6838 178.559L87.5908 178.35C87.1697 177.389 86.7979 176.348 87.2124 175.334ZM78.5869 174.261C79.7286 173.595 80.1349 175.802 79.8435 176.543C79.3766 177.732 78.1031 178.394 76.8338 178.847L76.8382 178.713C76.8942 177.355 77.3468 174.987 78.5869 174.261ZM97.8049 168.75C97.8306 168.909 97.7886 169.104 97.7833 169.251C97.5881 171.854 96.4308 174.353 94.8211 176.383C93.8945 173.624 95.0888 169.978 97.8049 168.75ZM125.253 165.496C125.993 165.301 126.777 165.355 127.54 165.562C127.485 166.429 127.673 167.297 128.05 168.093C126.082 174.008 121.453 169.455 125.253 165.496Z" fill="black"/>
<path fill-rule="evenodd" clip-rule="evenodd" d="M123.142 40.0519C109.247 28.7539 86.9803 25.0855 72.1065 36.4838C60.5493 47.1809 55.7666 77.5786 57.8119 92.8533C58.3806 102.65 65.8627 113.755 76.8458 110.656C78.7109 110.473 80.5219 109.758 82.4041 109.608C84.6555 109.348 86.9241 109.344 89.1712 109.662C94.0675 110.354 98.408 112.955 103.16 114.171C111.978 116.427 121.817 114.909 129.408 109.828C154.491 93.3301 143.129 56.0194 123.142 40.0519Z" fill="white"/>
<path fill-rule="evenodd" clip-rule="evenodd" d="M121.292 114.442C121.55 114.353 121.807 114.261 122.063 114.166C122.08 114.225 122.107 114.282 122.139 114.337C122.175 114.426 122.211 114.512 122.251 114.599C121.93 114.601 121.609 114.544 121.292 114.442ZM120.777 4.95857C120.663 4.70305 120.531 4.45788 120.383 4.22096C120.743 4.33741 121.102 4.49804 121.427 4.70516C121.208 4.77913 120.992 4.86367 120.777 4.95857ZM65.8914 38.3859C65.8766 38.3834 65.862 38.3813 65.8475 38.3788C66.0359 37.8768 66.3716 37.403 66.7424 37.0608C66.8089 36.9993 66.881 36.9424 66.9507 36.8837C66.5571 37.3527 66.2001 37.8529 65.8914 38.3859ZM166.317 90.8746C166.131 89.1119 165.895 87.3558 165.588 85.6098C165.295 83.9383 165.048 82.1503 164.196 80.6666C163.351 79.1892 162.504 77.754 161.498 76.4544C161.642 75.7907 161.832 75.1672 161.997 74.6642C162.948 71.7687 163.884 68.0912 161.908 65.4007C161.45 64.7773 160.89 64.2996 160.25 63.8684C159.977 63.6846 159.525 63.5176 159.316 63.264C159.168 63.0843 159.219 63.1816 159.212 63.0928C159.176 62.6151 160.296 61.607 160.558 61.2287C161.048 60.5289 161.414 59.7408 161.693 58.9355C162.795 55.7484 162.045 52.2378 161.382 49.0441C161.032 47.3514 160.645 45.6543 160.518 43.9254C160.4 42.3023 160.621 40.7171 160.752 39.1024C160.879 37.5086 160.846 35.8645 160.163 34.3891C159.829 33.6705 159.325 33.0365 158.71 32.5419C158.11 32.0581 157.362 31.777 156.777 31.2951C156.193 30.8152 156.36 30.1665 156.513 29.5029C156.721 28.6025 156.986 27.7085 157.011 26.7786C157.057 25.1575 156.396 23.5785 155.363 22.3529C154.298 21.0869 152.777 20.2307 151.133 20.0384C150.381 19.9496 149.642 20.0999 148.894 20.0471C148.155 19.9964 147.994 19.6265 147.855 18.9502C147.534 17.401 147.664 15.8708 146.902 14.4252C146.226 13.1402 145.024 12.2692 143.695 11.7558C141.259 10.8132 138.426 11.0076 135.857 11.5633C134.34 7.09976 129.605 4.17256 124.947 4.13663C124.22 2.90234 122.988 1.98085 121.584 1.43959C119.26 0.541347 116.798 1.06571 114.377 1.06571H114.367C114.124 1.0507 113.881 1.04457 113.638 1.04669C113.41 1.03379 113.181 1.01477 112.953 0.989622C110.198 0.663931 107.473 -0.46468 104.743 0.640893C103.526 1.13334 102.559 1.89209 101.946 2.86007C101.023 3.11137 100.112 3.39901 99.2189 3.73295C95.3461 3.83419 91.5095 5.91176 89.5513 9.27878C86.7942 8.96598 83.8027 9.49647 81.9792 11.7495C81.5043 12.3358 81.1365 13.0245 80.8927 13.7558C79.0335 14.3573 77.3132 15.4291 76.1873 17.0434C75.1599 18.5165 74.9626 20.4212 75.6575 22.0025C73.9977 23.2053 72.7008 24.9272 72.0761 26.9603C71.6964 28.1957 71.64 29.472 71.8842 30.6879C70.185 31.065 68.5597 31.7639 67.1197 32.8128C65.6106 33.9117 63.7259 35.6606 63.6266 37.6735C63.6192 37.8212 63.6249 37.9689 63.6368 38.1163C60.3146 37.8827 56.9271 38.4458 54.6816 41.1102C52.9954 43.1094 52.2625 45.6839 52.7125 48.0277C48.7597 48.8309 45.0222 50.8979 42.4151 53.954C40.5203 56.1753 38.8365 58.9989 38.9377 62.0231C38.9694 62.9343 39.183 63.8515 39.5527 64.6991V64.701C39.3942 64.9992 39.2313 65.331 39.075 65.6839C36.6264 67.3978 34.8475 70.0843 33.8461 73.0453C33.0372 75.4439 32.528 78.5594 33.3919 81.0005C33.5231 81.3725 33.69 81.7233 33.8844 82.0486C33.7215 82.2221 33.5675 82.3954 33.4175 82.5708C31.7673 84.5003 30.0961 86.9308 30.2104 89.5875C30.2569 90.6571 30.6539 91.7329 31.3027 92.6161C29.0208 94.9306 27.183 97.8515 27.3644 101.113C27.5208 103.951 29.078 106.834 31.518 108.197C31.1104 110.385 31.6555 112.692 33.3581 114.4C34.2076 115.254 35.2088 115.816 36.2696 116.116C36.5062 118.693 38.7919 120.766 41.2194 121.362C41.6717 121.474 42.1238 121.542 42.5736 121.573C44.7581 122.645 47.363 122.522 49.5919 121.539C50.2489 122.374 51.1046 123.055 52.1018 123.543C52.5053 123.742 52.9323 123.907 53.3778 124.04C56.5257 124.972 59.7541 123.708 62.5067 122.233C62.5954 122.186 62.7581 122.127 62.9018 122.062C63.282 122.486 63.975 122.907 64.3363 123.114C65.5618 123.818 67.0597 124.145 68.4668 124.053C70.1168 123.943 71.5722 123.397 72.9201 122.622C73.1168 122.656 73.3151 122.675 73.5139 122.685C74.7816 122.753 75.9116 122.351 76.928 121.717C77.5996 121.806 78.2884 121.797 78.9856 121.675C80.5217 122.066 82.0175 121.444 83.2194 120.457C83.752 120.02 84.2018 119.506 84.6837 119.016C85.1842 118.507 85.5646 118.388 86.1496 118.046C87.5337 117.237 87.7004 115.184 87.1004 113.7C87.2144 113.441 87.2801 113.151 87.2801 112.83C87.2757 110.027 85.9851 107.457 84.4006 105.215C83.6926 104.215 82.9238 103.236 82.0806 102.349C81.4025 101.637 80.4499 100.481 79.4463 100.191C79.3851 100.147 79.3215 100.102 79.2581 100.06C79.4527 99.3793 79.5666 98.6863 79.5182 97.9783C79.4673 97.251 79.2327 96.562 78.8569 95.9747C80.118 93.5294 80.6506 90.8473 80.397 88.049C81.4236 86.5926 82.2013 84.9845 82.6025 83.2218C82.8497 82.1312 82.9914 80.9836 82.9722 79.8653C82.9637 79.3287 82.7673 78.6501 82.7632 78.0944C82.7928 78.2699 83.021 77.6147 83.1097 77.4517C84.1278 75.5603 85.4356 74.0851 85.6534 71.8554C85.7799 70.5511 85.4715 69.1099 84.6898 68.0405C85.1905 66.0665 85.1842 63.9464 84.3961 62.0635C84.1849 61.5605 83.9421 61.0681 83.6632 60.601C83.7919 60.2079 83.9104 59.8105 84.0623 59.4531C84.1217 59.3115 84.1806 59.168 84.2398 59.0243C84.8123 58.519 85.3449 57.9675 85.7928 57.4263C86.7856 56.2281 87.5442 54.8544 87.6393 53.2711C87.6858 52.4786 87.4999 51.7198 87.2696 50.9676C87.168 50.6273 87.1067 50.249 86.9863 49.9172C86.9189 49.7331 86.756 49.5452 86.6992 49.3719C86.6863 49.3339 86.6757 49.3022 86.6673 49.2768C86.6757 49.2515 86.6823 49.1986 86.6823 49.0991C86.6842 48.3403 86.7835 47.5985 86.7879 46.8674C87.483 47.5691 88.3196 48.093 89.2703 48.3997C91.1863 49.0147 93.1851 48.7358 94.8813 47.7868C96.7069 49.038 98.7581 50.1706 100.909 50.6252C102.187 50.8956 103.467 50.7838 104.75 50.9507C106.024 51.1177 107.255 51.6735 108.455 52.1068C111.126 53.0727 113.79 54.0637 116.469 55.0044C118.632 55.7632 120.973 56.3655 123.238 55.9386C123.874 56.919 124.7 57.7477 125.758 58.3564C126.517 58.7897 127.349 59.0833 128.209 59.2293C128.969 59.3582 129.861 59.3075 130.478 59.8295C131.08 60.3368 131.456 61.0932 131.997 61.6641C132.599 62.3023 133.343 62.8561 134.122 63.2534C134.748 63.5726 135.386 63.8027 136.034 63.953C135.977 65.3965 135.922 66.8379 135.905 68.2836C135.874 71.4242 135.886 74.5647 135.844 77.7056C135.802 80.8354 135.703 83.9658 135.538 87.0916C135.381 90.0252 135.162 92.9691 134.462 95.831C132.143 105.327 123.453 112.126 113.726 112.473C110.839 112.576 107.98 112.17 105.219 111.321C102.358 110.439 99.8039 108.626 96.8715 108.068C96.1046 107.924 95.382 108.696 95.8215 109.437C96.578 110.712 97.4968 111.49 98.7539 112.257C100.07 113.058 101.536 113.652 102.983 114.172C105.645 115.127 108.462 115.681 111.286 115.835C113.441 115.953 115.605 115.806 117.715 115.4C117.863 115.854 118.125 116.296 118.324 116.717C118.353 116.778 118.453 116.736 118.434 116.672C118.402 116.567 118.381 116.474 118.372 116.397C119.082 117.323 120.179 117.963 121.305 118.274C122.099 118.494 122.942 118.561 123.76 118.469C124.024 118.439 124.275 118.395 124.525 118.34C125.357 119.069 126.421 119.555 127.49 119.798C127.307 120.914 127.858 122.131 129.136 122.448C129.673 122.582 130.188 122.584 130.704 122.535C131.12 122.73 131.568 122.882 132.044 122.985C132.662 123.121 133.402 122.947 133.869 122.499C134.124 122.679 134.363 122.803 134.6 123.089C135.574 124.264 137.674 123.328 137.767 121.969C138.075 121.969 138.386 121.973 138.696 121.983C138.77 122.017 138.844 122.051 138.92 122.087C140.279 122.719 141.686 123.271 143.188 122.774C143.464 122.683 143.718 122.567 143.948 122.432C145.007 122.527 146.05 122.529 147.124 122.182C147.758 121.977 148.353 121.652 148.85 121.225C150.506 121.711 152.253 121.931 153.901 121.328C155.135 120.878 156.128 120.168 156.827 119.231C157.896 119.27 158.982 119.012 159.96 118.503C161.633 117.636 162.806 115.989 163.624 114.339C165.424 110.697 166.489 106.785 166.907 102.751C167.319 98.7772 166.731 94.8249 166.317 90.8746Z" fill="black"/>
<path fill-rule="evenodd" clip-rule="evenodd" d="M115.152 99.2741C113.732 98.6945 112.465 97.7277 111.538 96.4927C111.216 96.0633 111.133 95.6099 111.2 95.1953C111.276 94.729 111.552 94.3064 111.928 94.0229C112.305 93.7386 112.777 93.5984 113.233 93.6698C113.63 93.732 114.024 93.9491 114.337 94.3994L114.402 94.4894C114.953 95.2349 115.67 95.8465 116.488 96.2407C117.276 96.6207 118.158 96.798 119.07 96.6949C120.808 96.4985 122.005 95.5585 123.278 94.282C123.436 94.1209 123.594 93.9547 123.752 93.7858C123.852 93.6327 123.991 93.5343 124.146 93.4827C124.317 93.4254 124.511 93.4286 124.689 93.4906C124.86 93.5504 125.013 93.6637 125.116 93.8145C125.213 93.9578 125.269 94.1349 125.251 94.3386C125.134 95.6614 124.443 96.842 123.461 97.7691C122.37 98.7986 120.924 99.5109 119.563 99.7607C118.064 100.036 116.536 99.8388 115.152 99.2741ZM120.271 78.8663C121.866 79.8364 124.297 82.0985 122.581 84.5035C120.56 86.6241 117.652 84.1927 116.218 83.093C114.889 82.2408 113.396 84.4327 114.629 85.4278C124.986 93.0988 129.19 79.1199 121.078 77.7256C120.184 77.572 119.853 78.5661 120.271 78.8663ZM101.711 69.9429C101.887 67.7541 105.219 67.257 105.551 69.423C105.847 71.3632 105.498 73.1455 104.624 74.8923C103.79 76.5611 101.692 75.7825 101.533 74.2629C101.32 72.2259 101.601 71.3044 101.711 69.9429ZM127.076 68.9739C127.541 68.3652 128.211 67.9497 129.015 68.1845C131.526 68.9185 130.786 72.4846 129.904 74.2204C129.425 75.163 127.876 75.4021 127.176 74.5721C126.035 73.2186 125.489 70.5157 126.939 69.1825C126.979 69.1136 127.022 69.044 127.076 68.9739ZM104.589 60.3654L104.986 60.2959C106.213 60.0836 107.738 59.8796 108.606 60.8665C109.067 61.3898 109.225 62.3624 108.606 62.8633C107.518 63.7446 106.314 63.4031 105.01 63.4777C103.935 63.5394 102.902 63.7174 101.867 64.0135C99.5951 64.663 97.7441 65.8486 95.8041 67.1505C95.5495 67.3213 95.2896 66.9956 95.4111 66.7574C96.531 64.563 98.7014 62.7604 100.875 61.6616C102.036 61.0751 103.305 60.5885 104.589 60.3654ZM124.787 59.3823L125.091 59.4445C128.394 60.1353 132.687 61.5153 134.251 64.7615C134.311 65.2205 134.248 65.3189 134.196 65.3832L134.179 65.4046C134.137 65.4595 134.104 65.5351 133.905 65.5976C133.849 65.5844 133.794 65.5705 133.737 65.5557C133.02 65.3677 132.453 65.1087 131.904 64.84L131.308 64.5465C130.617 64.2076 129.92 63.881 129.181 63.6399C127.605 63.1255 125.983 62.7631 124.337 62.5696C123.98 62.5277 123.636 62.4072 123.365 62.2007C123.107 62.0046 122.911 61.7332 122.821 61.3724C122.705 60.9056 122.738 60.5521 122.989 60.1309C123.177 59.8146 123.447 59.5953 123.756 59.4694C124.071 59.3411 124.43 59.3108 124.787 59.3823Z" fill="black"/>
</svg>
